<svg width="24" height="24" viewBox="0 0 24 24" fill="none" xmlns="http://www.w3.org/2000/svg">
<path d="M7.26316 11.5263C6.70331 11.5263 6.14895 11.416 5.63172 11.2018C5.11449 10.9876 4.64452 10.6735 4.24865 10.2777C3.85278 9.88179 3.53876 9.41183 3.32451 8.8946C3.11027 8.37737 3 7.823 3 7.26316C3 6.70331 3.11027 6.14895 3.32451 5.63172C3.53876 5.11449 3.85278 4.64452 4.24865 4.24865C4.64452 3.85278 5.11449 3.53876 5.63172 3.32451C6.14895 3.11027 6.70331 3 7.26316 3C8.39382 3 9.47817 3.44915 10.2777 4.24865C11.0772 5.04815 11.5263 6.1325 11.5263 7.26316C11.5263 8.39382 11.0772 9.47817 10.2777 10.2777C9.47817 11.0772 8.39382 11.5263 7.26316 11.5263ZM7.26316 21C6.1325 21 5.04815 20.5508 4.24865 19.7514C3.44915 18.9519 3 17.8675 3 16.7368C3 15.6062 3.44915 14.5218 4.24865 13.7223C5.04815 12.9228 6.1325 12.4737 7.26316 12.4737C8.39382 12.4737 9.47817 12.9228 10.2777 13.7223C11.0772 14.5218 11.5263 15.6062 11.5263 16.7368C11.5263 17.8675 11.0772 18.9519 10.2777 19.7514C9.47817 20.5508 8.39382 21 7.26316 21ZM16.7368 11.5263C16.177 11.5263 15.6226 11.416 15.1054 11.2018C14.5882 10.9876 14.1182 10.6735 13.7223 10.2777C13.3265 9.88179 13.0124 9.41183 12.7982 8.8946C12.584 8.37737 12.4737 7.823 12.4737 7.26316C12.4737 6.70331 12.584 6.14895 12.7982 5.63172C13.0124 5.11449 13.3265 4.64452 13.7223 4.24865C14.1182 3.85278 14.5882 3.53876 15.1054 3.32451C15.6226 3.11027 16.177 3 16.7368 3C17.8675 3 18.9519 3.44915 19.7514 4.24865C20.5508 5.04815 21 6.1325 21 7.26316C21 8.39382 20.5508 9.47817 19.7514 10.2777C18.9519 11.0772 17.8675 11.5263 16.7368 11.5263ZM16.7368 21C15.6062 21 14.5218 20.5508 13.7223 19.7514C12.9228 18.9519 12.4737 17.8675 12.4737 16.7368C12.4737 15.6062 12.9228 14.5218 13.7223 13.7223C14.5218 12.9228 15.6062 12.4737 16.7368 12.4737C17.8675 12.4737 18.9519 12.9228 19.7514 13.7223C20.5508 14.5218 21 15.6062 21 16.7368C21 17.8675 20.5508 18.9519 19.7514 19.7514C18.9519 20.5508 17.8675 21 16.7368 21Z" fill="black"/>
</svg>
