<svg width="15" height="14" viewBox="0 0 15 14" fill="none" xmlns="http://www.w3.org/2000/svg">
<path d="M7.5 13.6674C6.71207 13.6674 5.93185 13.5122 5.2039 13.2106C4.47594 12.9091 3.81451 12.4672 3.25736 11.91C2.70021 11.3529 2.25825 10.6914 1.95672 9.96347C1.65519 9.23551 1.5 8.4553 1.5 7.66737C1.5 6.87943 1.65519 6.09922 1.95672 5.37126C2.25825 4.64331 2.70021 3.98188 3.25736 3.42472C3.81451 2.86757 4.47594 2.42562 5.2039 2.12409C5.93185 1.82256 6.71207 1.66736 7.5 1.66736C9.0913 1.66736 10.6174 2.29951 11.7426 3.42472C12.8679 4.54994 13.5 6.07607 13.5 7.66737C13.5 9.25866 12.8679 10.7848 11.7426 11.91C10.6174 13.0352 9.0913 13.6674 7.5 13.6674ZM8.16667 7.66737V4.33403H6.83333V9.0007H10.1667V7.66737H8.16667ZM0.664665 3.1887L3.02133 0.832031L3.96467 1.7747L1.60667 4.13203L0.664665 3.1887ZM11.978 0.832031L14.3353 3.1887L13.3927 4.13203L11.0353 1.7747L11.9787 0.832031H11.978Z" fill="#A0751E"/>
</svg>
