<svg width="13" height="14" viewBox="0 0 13 14" fill="none" xmlns="http://www.w3.org/2000/svg">
<path d="M4.33325 4.66602V7.33268L0.333252 3.99935L4.33325 0.666016V3.33268H7.66659C9.08107 3.33268 10.4376 3.89459 11.4378 4.89478C12.438 5.89497 12.9999 7.25153 12.9999 8.66602C12.9999 10.0805 12.438 11.4371 11.4378 12.4373C10.4376 13.4374 9.08107 13.9993 7.66659 13.9993H1.66659V12.666H7.66659C8.72745 12.666 9.74487 12.2446 10.495 11.4944C11.2452 10.7443 11.6666 9.72688 11.6666 8.66602C11.6666 7.60515 11.2452 6.58773 10.495 5.83759C9.74487 5.08744 8.72745 4.66602 7.66659 4.66602H4.33325Z" fill="white"/>
</svg>
