<svg xmlns="http://www.w3.org/2000/svg" width="12" height="10" viewBox="0 0 12 10" fill="none">
<path d="M5.87573 8.04795C5.71161 8.04795 5.54748 8.00575 5.40211 7.92134L1.932 5.89555V7.56964C1.932 8.76542 3.67175 9.6986 5.8898 9.6986C8.10785 9.6986 9.8476 8.76073 9.8476 7.56964V5.87679L6.34467 7.92134C6.20399 8.00575 6.03986 8.04795 5.87573 8.04795ZM11.6905 3.66812C11.6905 3.66812 11.6624 3.6306 11.6389 3.61653L5.99297 0.324622C5.91794 0.282418 5.82884 0.282418 5.7585 0.324622L0.117233 3.61653C0.0468933 3.65874 0 3.73377 0 3.81817C0 3.90258 0.042204 3.97761 0.117233 4.01981L5.7585 7.31173C5.79601 7.33048 5.83822 7.34455 5.87573 7.34455C5.91325 7.34455 5.95545 7.33517 5.99297 7.31173L11.0621 4.35276V6.65053C11.0621 6.90844 11.2732 7.11946 11.5311 7.11946C11.789 7.11946 12 6.90844 12 6.65053V4.10422C12 3.90258 11.8687 3.73377 11.6858 3.66812H11.6905Z" fill="white"/>
</svg>