<svg width="27" height="26" viewBox="0 0 27 26" fill="none" xmlns="http://www.w3.org/2000/svg">
<path d="M25.4844 13C25.4852 12.0968 25.2628 11.2073 24.8372 10.4107C24.4115 9.61406 23.7957 8.93488 23.0444 8.43349C22.2932 7.9321 21.4297 7.62402 20.5307 7.53662C19.6317 7.44923 18.725 7.58521 17.8913 7.9325C17.0575 8.2798 16.3224 8.82764 15.7512 9.52737C15.1801 10.2271 14.7906 11.0571 14.6174 11.9435C14.4442 12.83 14.4926 13.7455 14.7583 14.6088C15.0241 15.472 15.4989 16.2563 16.1406 16.8919V22.75C16.1406 22.8539 16.1671 22.956 16.2176 23.0467C16.2682 23.1375 16.3411 23.2138 16.4294 23.2684C16.5177 23.323 16.6185 23.3542 16.7223 23.3589C16.826 23.3637 16.9293 23.3418 17.0222 23.2954L20 21.8065L22.9778 23.2954C23.0624 23.3375 23.1555 23.3594 23.25 23.3594C23.3631 23.3596 23.474 23.3279 23.5699 23.268C23.6583 23.2134 23.7313 23.1372 23.782 23.0466C23.8326 22.9559 23.8593 22.8538 23.8594 22.75V16.8919C24.3744 16.3831 24.7833 15.777 25.0623 15.1089C25.3412 14.4408 25.4847 13.724 25.4844 13ZM15.7344 13C15.7344 12.1563 15.9845 11.3316 16.4533 10.6301C16.922 9.92867 17.5882 9.38193 18.3676 9.05908C19.1471 8.73622 20.0047 8.65175 20.8322 8.81634C21.6596 8.98093 22.4197 9.38719 23.0163 9.98375C23.6128 10.5803 24.0191 11.3404 24.1837 12.1678C24.3483 12.9953 24.2638 13.8529 23.9409 14.6324C23.6181 15.4118 23.0713 16.078 22.3699 16.5467C21.6684 17.0155 20.8437 17.2656 20 17.2656C18.8687 17.2656 17.7837 16.8162 16.9837 16.0163C16.1838 15.2163 15.7344 14.1313 15.7344 13ZM22.6406 21.7638L20.2722 20.5796C20.1877 20.5374 20.0945 20.5154 20 20.5154C19.9055 20.5154 19.8123 20.5374 19.7278 20.5796L17.3594 21.7638V17.8029C18.1681 18.2486 19.0766 18.4823 20 18.4823C20.9234 18.4823 21.8319 18.2486 22.6406 17.8029V21.7638ZM14.1094 19.5C14.1094 19.6616 14.0452 19.8166 13.9309 19.9309C13.8166 20.0452 13.6616 20.1094 13.5 20.1094H4.5625C4.1854 20.1094 3.82374 19.9596 3.55708 19.6929C3.29043 19.4263 3.14062 19.0646 3.14062 18.6875V5.6875C3.14062 5.3104 3.29043 4.94874 3.55708 4.68208C3.82374 4.41543 4.1854 4.26562 4.5625 4.26562H22.4375C22.8146 4.26563 23.1763 4.41543 23.4429 4.68208C23.7096 4.94874 23.8594 5.3104 23.8594 5.6875C23.8594 5.84912 23.7952 6.00411 23.6809 6.11839C23.5666 6.23267 23.4116 6.29688 23.25 6.29688C23.0884 6.29688 22.9334 6.23267 22.8191 6.11839C22.7048 6.00411 22.6406 5.84912 22.6406 5.6875C22.6406 5.63363 22.6192 5.58196 22.5811 5.54387C22.543 5.50578 22.4914 5.48438 22.4375 5.48438H4.5625C4.50863 5.48438 4.45696 5.50578 4.41887 5.54387C4.38078 5.58196 4.35938 5.63363 4.35938 5.6875V18.6875C4.35938 18.7414 4.38078 18.793 4.41887 18.8311C4.45696 18.8692 4.50863 18.8906 4.5625 18.8906H13.5C13.6616 18.8906 13.8166 18.9548 13.9309 19.0691C14.0452 19.1834 14.1094 19.3384 14.1094 19.5ZM12.4844 13.8125C12.4844 13.9741 12.4202 14.1291 12.3059 14.2434C12.1916 14.3577 12.0366 14.4219 11.875 14.4219H7.8125C7.65088 14.4219 7.49589 14.3577 7.38161 14.2434C7.26733 14.1291 7.20312 13.9741 7.20312 13.8125C7.20312 13.6509 7.26733 13.4959 7.38161 13.3816C7.49589 13.2673 7.65088 13.2031 7.8125 13.2031H11.875C12.0366 13.2031 12.1916 13.2673 12.3059 13.3816C12.4202 13.4959 12.4844 13.6509 12.4844 13.8125ZM12.4844 10.5625C12.4844 10.7241 12.4202 10.8791 12.3059 10.9934C12.1916 11.1077 12.0366 11.1719 11.875 11.1719H7.8125C7.65088 11.1719 7.49589 11.1077 7.38161 10.9934C7.26733 10.8791 7.20312 10.7241 7.20312 10.5625C7.20312 10.4009 7.26733 10.2459 7.38161 10.1316C7.49589 10.0173 7.65088 9.95312 7.8125 9.95312H11.875C12.0366 9.95312 12.1916 10.0173 12.3059 10.1316C12.4202 10.2459 12.4844 10.4009 12.4844 10.5625Z" fill="white"/>
</svg>
