<svg width="62" height="62" viewBox="0 0 62 62" fill="none" xmlns="http://www.w3.org/2000/svg">
<path d="M58.125 46.9844H55.7031V13.5625C55.7031 12.6633 55.3459 11.8008 54.71 11.165C54.0742 10.5291 53.2118 10.1719 52.3125 10.1719H9.6875C8.78825 10.1719 7.92583 10.5291 7.28997 11.165C6.6541 11.8008 6.29688 12.6633 6.29688 13.5625V46.9844H3.875C3.48961 46.9844 3.12 47.1375 2.84749 47.41C2.57497 47.6825 2.42188 48.0521 2.42188 48.4375C2.42188 48.8229 2.57497 49.1925 2.84749 49.465C3.12 49.7375 3.48961 49.8906 3.875 49.8906H58.125C58.5104 49.8906 58.88 49.7375 59.1525 49.465C59.425 49.1925 59.5781 48.8229 59.5781 48.4375C59.5781 48.0521 59.425 47.6825 59.1525 47.41C58.88 47.1375 58.5104 46.9844 58.125 46.9844ZM9.20312 13.5625C9.20312 13.434 9.25416 13.3108 9.34499 13.22C9.43583 13.1292 9.55904 13.0781 9.6875 13.0781H52.3125C52.441 13.0781 52.5642 13.1292 52.655 13.22C52.7458 13.3108 52.7969 13.434 52.7969 13.5625V46.9844H47.9531V40.6875C47.9531 40.3021 47.8 39.9325 47.5275 39.66C47.255 39.3875 46.8854 39.2344 46.5 39.2344H29.0625C28.6771 39.2344 28.3075 39.3875 28.035 39.66C27.7625 39.9325 27.6094 40.3021 27.6094 40.6875V46.9844H16.9531V20.8281H45.0469V32.9375C45.0469 33.3229 45.2 33.6925 45.4725 33.965C45.745 34.2375 46.1146 34.3906 46.5 34.3906C46.8854 34.3906 47.255 34.2375 47.5275 33.965C47.8 33.6925 47.9531 33.3229 47.9531 32.9375V19.375C47.9531 18.9896 47.8 18.62 47.5275 18.3475C47.255 18.075 46.8854 17.9219 46.5 17.9219H15.5C15.1146 17.9219 14.745 18.075 14.4725 18.3475C14.2 18.62 14.0469 18.9896 14.0469 19.375V46.9844H9.20312V13.5625ZM45.0469 46.9844H30.5156V42.1406H45.0469V46.9844Z" fill="white"/>
</svg>
