<svg width="34" height="34" viewBox="0 0 34 34" fill="none" xmlns="http://www.w3.org/2000/svg">
<g clip-path="url(#clip0_50_9148)">
<path d="M17 0C26.3898 0 34 7.61016 34 17C34 26.3898 26.3898 34 17 34C7.61016 34 0 26.3898 0 17C0 7.61016 7.61016 0 17 0ZM11.6809 20.1211C11.0583 20.7437 11.0583 21.752 11.6809 22.3749C12.3038 22.9979 13.3118 22.9973 13.9347 22.3749L17 19.2512L20.1231 22.3743C20.746 22.9972 21.754 22.9967 22.3769 22.3743C22.9995 21.7517 22.9995 20.7433 22.3769 20.1204L19.2538 16.9973L22.3789 13.8191C23.0015 13.1966 23.0015 12.1882 22.3789 11.5653C21.7563 10.9424 20.748 10.9428 20.1251 11.5653L17 14.7488L13.8769 11.6257C13.2544 11.0032 12.246 11.0032 11.6231 11.6257C11.0002 12.2483 11.0005 13.2567 11.6231 13.8796L14.7462 17.0027L11.6809 20.1211Z" fill="#BF2A21"/>
</g>
<defs>
<clipPath id="clip0_50_9148">
<rect width="34" height="34" fill="white" transform="matrix(-1 0 0 1 34 0)"/>
</clipPath>
</defs>
</svg>
