<svg width="64" height="64" viewBox="0 0 64 64" fill="none" xmlns="http://www.w3.org/2000/svg">
<path d="M32 0C14.325 0 0 14.325 0 32C0 49.675 14.325 64 32 64C49.675 64 64 49.675 64 32C64 14.325 49.675 0 32 0ZM46.475 26.475L30.475 42.475C29.7875 43.1625 28.9 43.5 28 43.5C27.1 43.5 26.2075 43.1601 25.5238 42.4765L17.5238 34.4765C16.16 33.109 16.16 30.8903 17.5238 29.5228C18.8913 28.1553 21.11 28.1553 22.4775 29.5228L28 35.05L41.525 21.525C42.8925 20.1575 45.1112 20.1575 46.4787 21.525C47.8375 22.8875 47.8375 25.1125 46.475 26.475Z" fill="#098707"/>
</svg>
