<svg width="26" height="26" viewBox="0 0 26 26" fill="none" xmlns="http://www.w3.org/2000/svg">
<g clip-path="url(#clip0_5103_32906)">
<path d="M13 0C5.81953 0 0 5.81953 0 13C0 20.1805 5.81953 26 13 26C20.1805 26 26 20.1805 26 13C26 5.81953 20.1805 0 13 0ZM13 20.3125C12.0859 20.3125 11.375 19.6016 11.375 18.6875C11.375 17.7734 12.0402 17.0625 13 17.0625C13.8684 17.0625 14.625 17.7734 14.625 18.6875C14.625 19.6016 13.8684 20.3125 13 20.3125ZM16.509 13.1016L14.2188 14.5234V14.625C14.2188 15.2852 13.6602 15.8438 13 15.8438C12.3398 15.8438 11.7812 15.2852 11.7812 14.625V13.8125C11.7812 13.4062 11.9844 13 12.3906 12.7461L15.2852 11.0195C15.6406 10.8164 15.8438 10.4609 15.8438 10.0547C15.8438 9.44531 15.2902 8.9375 14.6809 8.9375H12.0859C11.4309 8.9375 10.9688 9.44531 10.9688 10.0547C10.9688 10.7148 10.4102 11.2734 9.75 11.2734C9.08984 11.2734 8.53125 10.7148 8.53125 10.0547C8.53125 8.07422 10.1055 6.5 12.0402 6.5H14.6352C16.707 6.5 18.2812 8.07422 18.2812 10.0547C18.2812 11.2734 17.6211 12.4414 16.509 13.1016Z" fill="#434343"/>
</g>
<defs>
<clipPath id="clip0_5103_32906">
<rect width="26" height="26" fill="white"/>
</clipPath>
</defs>
</svg>
