<svg width="64" height="64" viewBox="0 0 64 64" fill="none" xmlns="http://www.w3.org/2000/svg">
<g clip-path="url(#clip0_50_4585)">
<path d="M32 0C14.325 0 0 14.325 0 32C0 49.675 14.325 64 32 64C49.675 64 64 49.675 64 32C64 14.325 49.675 0 32 0ZM29 19C29 17.35 30.35 16 32 16C33.65 16 35 17.3438 35 19V35C35 36.6562 33.6562 38 32 38C30.3438 38 29 36.6625 29 35V19ZM32 50C29.83 50 28.07 48.24 28.07 46.07C28.07 43.9 29.8288 42.14 32 42.14C34.1712 42.14 35.93 43.9 35.93 46.07C35.925 48.2375 34.175 50 32 50Z" fill="#FFAC00"/>
</g>
<defs>
<clipPath id="clip0_50_4585">
<rect width="64" height="64" fill="white"/>
</clipPath>
</defs>
</svg>
