<svg xmlns="http://www.w3.org/2000/svg" width="20" height="20" viewBox="0 0 20 20" fill="none">
  <path d="M5.83317 5.83342V2.50008C5.83317 2.27907 5.92097 2.06711 6.07725 1.91083C6.23353 1.75455 6.44549 1.66675 6.6665 1.66675H17.4998C17.7208 1.66675 17.9328 1.75455 18.0891 1.91083C18.2454 2.06711 18.3332 2.27907 18.3332 2.50008V13.3334C18.3332 13.5544 18.2454 13.7664 18.0891 13.9227C17.9328 14.079 17.7208 14.1667 17.4998 14.1667H14.1665V17.4942C14.1665 17.9576 13.7923 18.3334 13.3273 18.3334H2.50567C2.39544 18.3335 2.28627 18.3119 2.18441 18.2698C2.08254 18.2276 1.98999 18.1658 1.91205 18.0879C1.8341 18.0099 1.77229 17.9174 1.73016 17.8155C1.68803 17.7137 1.66639 17.6045 1.6665 17.4942L1.669 6.67258C1.669 6.20925 2.04317 5.83342 2.50817 5.83342H5.83317ZM7.49984 5.83342H13.3273C13.7907 5.83342 14.1665 6.20758 14.1665 6.67258V12.5001H16.6665V3.33341H7.49984V5.83342Z" fill="black"/>
</svg>