<svg xmlns="http://www.w3.org/2000/svg" width="24" height="25" viewBox="0 0 24 25" fill="none">
  <path d="M6.455 19.5L2 23V4.5C2 4.23478 2.10536 3.98043 2.29289 3.79289C2.48043 3.60536 2.73478 3.5 3 3.5H21C21.2652 3.5 21.5196 3.60536 21.7071 3.79289C21.8946 3.98043 22 4.23478 22 4.5V18.5C22 18.7652 21.8946 19.0196 21.7071 19.2071C21.5196 19.3946 21.2652 19.5 21 19.5H6.455ZM13.415 11.5L15.889 9.025L14.475 7.611L12 10.086L9.525 7.61L8.111 9.025L10.586 11.5L8.11 13.975L9.524 15.389L12 12.914L14.475 15.389L15.889 13.975L13.414 11.5H13.415Z" fill="#4F6168"/>
</svg>