<svg version="1.1" id="Layer_1" xmlns="http://www.w3.org/2000/svg" xmlns:xlink="http://www.w3.org/1999/xlink" x="0px" y="0px"
	 width="100%" viewBox="0 0 512 512" enable-background="new 0 0 512 512" xml:space="preserve">
<path fill="" opacity="0" stroke="none" 
	d="
M288.000000,513.000000 
	C192.023300,513.000000 96.546600,513.000000 1.034948,513.000000 
	C1.034948,342.398285 1.034948,171.796539 1.034948,1.097402 
	C171.560043,1.097402 342.120178,1.097402 512.840149,1.097402 
	C512.840149,171.666550 512.840149,342.333252 512.840149,513.000000 
	C438.129852,513.000000 363.314911,513.000000 288.000000,513.000000 
M504.994904,219.752502 
	C504.667297,218.666016 504.277527,217.593964 504.021698,216.490829 
	C501.398865,205.180130 499.158173,193.766205 496.108307,182.572479 
	C491.205933,164.579330 483.577637,147.600220 473.811157,131.800919 
	C465.751556,118.762802 456.936646,106.077225 447.316956,94.154839 
	C439.911072,84.976204 431.049255,76.877327 422.251984,68.944702 
	C414.397583,61.862240 406.190338,54.980759 397.348267,49.224945 
	C380.847107,38.483387 363.473724,29.297178 344.921783,22.347269 
	C322.604584,13.986822 299.595032,8.492231 275.925385,7.278211 
	C258.321228,6.375289 240.480850,5.498799 222.932327,9.019202 
	C210.422806,11.528738 197.803268,13.682676 185.500671,16.991295 
	C158.909698,24.142584 134.773376,36.683109 112.246910,52.353909 
	C92.568527,66.043404 75.276993,82.405281 60.464565,101.188995 
	C45.789352,119.798706 34.071064,140.257446 24.956907,162.186203 
	C14.996449,186.151169 8.864124,211.177521 7.312372,236.931168 
	C6.233157,254.842331 5.449292,273.037140 9.015644,290.921753 
	C11.511845,303.439758 13.667573,316.059326 16.914112,328.386292 
	C21.992043,347.666931 30.582350,365.545013 40.366417,382.882263 
	C49.849163,399.685547 61.504482,414.890289 74.610413,428.915527 
	C81.787727,436.596344 89.957680,443.373047 97.883331,450.325653 
	C110.113419,461.054230 123.730316,469.807098 138.025543,477.496552 
	C154.534210,486.376617 171.624588,494.120941 189.911377,498.301300 
	C206.001129,501.979401 222.340744,505.492218 238.740067,506.632416 
	C255.798965,507.818542 273.166901,508.445587 290.206573,504.977417 
	C303.954987,502.179138 317.803894,499.705719 331.344940,496.099609 
	C349.488159,491.267944 366.305908,483.035278 382.610596,473.794159 
	C399.810760,464.045502 415.462982,452.153381 429.738617,438.561859 
	C437.119507,431.534729 444.217072,424.025970 450.337830,415.902405 
	C459.567322,403.652924 468.597107,391.122040 476.308838,377.892944 
	C485.971436,361.317200 493.063354,343.498260 498.156067,324.862427 
	C502.842010,307.715240 506.537872,290.383301 506.799408,272.672424 
	C507.055237,255.348190 505.666473,237.999664 504.994904,219.752502 
z"/>
<path fill="#A6E4EB" opacity="1.000000" stroke="none" 
	d="
M504.997253,220.207153 
	C505.666473,237.999664 507.055237,255.348190 506.799408,272.672424 
	C506.537872,290.383301 502.842010,307.715240 498.156067,324.862427 
	C493.063354,343.498260 485.971436,361.317200 476.308838,377.892944 
	C468.597107,391.122040 459.567322,403.652924 450.337830,415.902405 
	C444.217072,424.025970 437.119507,431.534729 429.738617,438.561859 
	C415.462982,452.153381 399.810760,464.045502 382.610596,473.794159 
	C366.305908,483.035278 349.488159,491.267944 331.344940,496.099609 
	C317.803894,499.705719 303.954987,502.179138 290.206573,504.977417 
	C273.166901,508.445587 255.798965,507.818542 238.740067,506.632416 
	C222.340744,505.492218 206.001129,501.979401 189.911377,498.301300 
	C171.624588,494.120941 154.534210,486.376617 138.025543,477.496552 
	C123.730316,469.807098 110.113419,461.054230 97.883331,450.325653 
	C89.957680,443.373047 81.787727,436.596344 74.610413,428.915527 
	C61.504482,414.890289 49.849163,399.685547 40.366417,382.882263 
	C30.582350,365.545013 21.992043,347.666931 16.914112,328.386292 
	C13.667573,316.059326 11.511845,303.439758 9.015644,290.921753 
	C5.449292,273.037140 6.233157,254.842331 7.312372,236.931168 
	C8.864124,211.177521 14.996449,186.151169 24.956907,162.186203 
	C34.071064,140.257446 45.789352,119.798706 60.464565,101.188995 
	C75.276993,82.405281 92.568527,66.043404 112.246910,52.353909 
	C134.773376,36.683109 158.909698,24.142584 185.500671,16.991295 
	C197.803268,13.682676 210.422806,11.528738 222.932327,9.019202 
	C240.480850,5.498799 258.321228,6.375289 275.925385,7.278211 
	C299.595032,8.492231 322.604584,13.986822 344.921783,22.347269 
	C363.473724,29.297178 380.847107,38.483387 397.348267,49.224945 
	C406.190338,54.980759 414.397583,61.862240 422.251984,68.944702 
	C431.049255,76.877327 439.911072,84.976204 447.316956,94.154839 
	C456.936646,106.077225 465.751556,118.762802 473.811157,131.800919 
	C483.577637,147.600220 491.205933,164.579330 496.108307,182.572479 
	C499.158173,193.766205 501.398865,205.180130 504.021698,216.490829 
	C504.277527,217.593964 504.667297,218.666016 504.997253,220.207153 
M132.200119,112.954849 
	C127.328499,115.037766 122.090401,116.535927 117.655312,119.315392 
	C105.318535,127.046844 105.449142,138.958557 117.943352,146.551941 
	C122.571587,149.364761 127.934273,150.969086 132.935242,154.045944 
	C132.935242,243.542328 132.935242,333.038727 132.935242,423.143524 
	C141.731171,423.143524 149.852936,423.143524 157.987640,424.062775 
	C157.991180,430.058472 158.313049,436.076172 157.900055,442.043030 
	C157.554031,447.042419 159.495911,448.101685 164.162933,448.091980 
	C230.277344,447.954987 296.392181,447.971527 362.506714,448.071686 
	C366.164948,448.077240 368.709076,446.919495 371.240234,444.363342 
	C389.402588,426.021423 407.630280,407.742676 426.010437,389.619507 
	C429.006500,386.665283 430.107300,383.679077 430.102173,379.531860 
	C429.996887,294.099152 430.022919,208.666260 430.022705,123.233421 
	C430.022705,122.234207 429.934479,121.226311 430.034637,120.237373 
	C430.371002,116.915726 428.797485,115.891190 425.631653,115.955414 
	C418.807159,116.093857 411.977203,115.964180 405.103577,115.015244 
	C405.086853,108.693550 404.866394,102.363411 405.127808,96.053238 
	C405.291473,92.102913 403.936859,90.925476 399.999298,90.931351 
	C320.976074,91.049088 241.952682,91.044441 162.001144,91.038803 
	C152.479507,91.038803 142.957886,91.038803 132.956589,91.038803 
	C132.956589,98.667305 132.956589,105.721855 132.200119,112.954849 
z"/>
<path fill="#B7BEC2" opacity="1.000000" stroke="none" 
	d="
M162.929321,91.064461 
	C241.952682,91.044441 320.976074,91.049088 399.999298,90.931351 
	C403.936859,90.925476 405.291473,92.102913 405.127808,96.053238 
	C404.866394,102.363411 405.086853,108.693550 405.086365,115.953278 
	C405.055725,135.036850 405.038483,153.182404 405.029663,171.327942 
	C404.998993,234.254684 404.971222,297.181427 404.479065,360.077515 
	C383.779694,360.046814 363.543701,360.046814 342.959534,360.046814 
	C342.959534,381.263977 342.959534,401.716309 342.619232,422.396393 
	C341.129456,422.748901 339.979950,422.982697 338.830475,422.982758 
	C280.216583,422.984558 221.602707,422.966492 163.057327,422.490204 
	C163.150650,421.032043 163.197174,420.034180 163.197220,419.036316 
	C163.200958,332.672791 163.201874,246.309280 163.194000,159.945755 
	C163.193878,158.617813 163.081665,157.289856 163.404358,155.826202 
	C165.586517,155.457062 167.388046,155.237717 169.185349,154.987854 
	C179.246826,153.589127 189.063553,151.409653 197.404434,145.154190 
	C204.562302,139.785950 206.045578,134.555420 203.376282,125.941269 
	C206.809570,119.238281 205.218536,113.106834 199.559326,109.913269 
	C193.957458,106.752052 188.426147,108.213943 184.290024,113.865662 
	C182.684921,114.675484 181.443970,115.472275 180.203003,116.269066 
	C181.090302,117.527565 181.977585,118.786064 182.877731,120.431946 
	C184.335968,128.822052 188.687134,131.667679 198.196167,131.006943 
	C199.327072,136.334000 196.102005,139.080811 192.521530,141.300446 
	C183.510468,146.886673 173.524857,149.093643 163.076599,148.688354 
	C163.074707,129.163910 163.002014,110.114189 162.929321,91.064461 
M258.724548,396.116150 
	C266.620178,387.114624 266.337708,374.693329 257.758545,366.235077 
	C248.197662,357.739441 236.066391,357.944244 227.071228,367.083008 
	C218.754364,376.778992 219.108795,388.887085 228.255051,397.653290 
	C238.131378,405.639832 250.389313,405.147705 258.724548,396.116150 
M312.680634,201.980362 
	C317.513336,201.980362 322.346008,201.981857 327.178711,201.979980 
	C333.677979,201.977463 340.185028,202.137894 346.670288,201.834412 
	C348.033722,201.770599 349.317230,199.998169 350.637543,199.013046 
	C349.362549,198.006668 348.221405,196.646942 346.773010,196.098434 
	C345.460449,195.601349 343.812927,195.986450 342.313110,195.986359 
	C331.706787,195.985703 321.100494,195.986008 309.608948,195.986008 
	C314.709991,187.102295 319.525208,178.997025 324.026062,170.720795 
	C325.535950,167.944351 327.403687,167.092392 330.399261,167.197418 
	C335.891663,167.389999 341.403839,167.398422 346.889618,167.122711 
	C348.182739,167.057724 349.403778,165.558365 350.657959,164.718857 
	C349.478027,163.587677 348.471100,162.072128 347.066589,161.439896 
	C345.812683,160.875473 344.119690,161.272858 342.620392,161.269974 
	C338.574707,161.262192 334.528992,161.267303 329.694794,161.267303 
	C331.793091,157.570572 333.648346,154.966476 334.766632,152.077133 
	C335.414886,150.402252 334.877716,148.268570 334.873993,146.341370 
	C333.194733,147.212585 331.068207,147.705627 329.938599,149.041580 
	C328.139648,151.169067 326.783173,153.759750 325.641235,156.332809 
	C323.943939,160.157104 321.408600,161.407761 317.126190,161.378296 
	C286.797546,161.169525 256.466797,161.266388 226.136734,161.270889 
	C224.637756,161.271103 222.987274,160.935272 221.682068,161.451096 
	C220.353836,161.976013 219.365662,163.361404 218.228577,164.370026 
	C219.368134,165.317703 220.378067,166.581802 221.686295,167.117767 
	C222.832123,167.587204 224.313019,167.249954 225.645905,167.250076 
	C254.809433,167.252747 283.972961,167.252762 313.136505,167.253296 
	C314.865021,167.253326 316.593567,167.253296 319.227264,167.253296 
	C314.215820,175.946381 309.574951,183.614899 305.350006,191.506104 
	C303.562805,194.844101 301.562592,196.131485 297.633179,196.095856 
	C273.471069,195.876724 249.306030,195.985229 225.141953,195.988174 
	C223.809189,195.988342 222.318634,195.652191 221.187347,196.138077 
	C220.020905,196.639038 218.411606,197.984055 218.446136,198.905487 
	C218.484573,199.931717 219.995834,201.252945 221.166367,201.785690 
	C222.281204,202.293060 223.783218,201.976074 225.115005,201.976395 
	C247.779236,201.981918 270.443451,201.980362 293.107697,201.980377 
	C294.850891,201.980377 296.594116,201.980377 299.147400,201.980377 
	C294.398956,210.257355 289.911469,217.622131 285.911499,225.242828 
	C283.881256,229.110870 281.486877,230.635468 276.966888,230.555069 
	C259.974121,230.252731 242.972702,230.430908 225.974533,230.439041 
	C224.476105,230.439758 222.816605,230.124939 221.524582,230.661453 
	C220.229385,231.199310 219.300903,232.620270 218.211716,233.654190 
	C219.240601,234.573929 220.131119,235.870071 221.335373,236.312775 
	C222.670898,236.803726 224.292953,236.558395 225.790283,236.559433 
	C241.455276,236.570282 257.120270,236.556778 272.785217,236.579712 
	C274.515625,236.582245 276.245789,236.769623 278.946167,236.928268 
	C273.947906,245.648132 269.315643,253.477432 264.964935,261.460205 
	C263.499237,264.149475 261.784607,265.140869 258.706726,265.092712 
	C247.044189,264.910217 235.374161,264.891113 223.714630,265.152954 
	C221.868042,265.194427 220.060959,266.995758 218.235596,267.983429 
	C220.005157,268.993439 221.752853,270.829865 223.547897,270.877380 
	C234.039429,271.155121 244.542084,271.001434 255.040878,271.031494 
	C256.239899,271.034943 257.438232,271.275818 259.078033,271.454681 
	C253.952728,280.334534 249.263153,288.769501 244.186035,296.964386 
	C243.292511,298.406616 240.817520,299.510712 239.002792,299.621338 
	C233.357376,299.965271 227.671112,299.606201 222.017685,299.875977 
	C220.722794,299.937744 219.496002,301.427124 218.237885,302.259521 
	C219.414673,303.396057 220.416870,304.917450 221.820374,305.554291 
	C223.071518,306.122009 224.766495,305.726746 226.265656,305.729889 
	C230.315308,305.738434 234.365005,305.732788 239.219223,305.732788 
	C237.204315,309.280762 235.412979,311.735046 234.392258,314.476288 
	C233.701614,316.331085 234.095200,318.589569 234.003845,320.667511 
	C235.769394,319.646240 237.949997,318.980560 239.201813,317.519196 
	C241.013687,315.404083 242.405090,312.821747 243.518646,310.241455 
	C245.058609,306.673065 247.405991,305.616852 251.286835,305.638519 
	C281.782623,305.808594 312.279755,305.733795 342.776489,305.729492 
	C344.275452,305.729279 345.927704,306.068237 347.230652,305.550232 
	C348.556885,305.022949 349.539246,303.630676 350.672180,302.617157 
	C349.529083,301.672089 348.514740,300.411255 347.204132,299.877014 
	C346.057007,299.409393 344.577057,299.748291 343.244110,299.748199 
	C314.080597,299.746246 284.917053,299.746735 255.753525,299.746735 
	C254.017914,299.746735 252.282288,299.746735 249.682220,299.746735 
	C254.827209,290.802490 259.602386,282.834808 264.006805,274.667206 
	C265.593872,271.724121 267.497864,270.923920 270.699158,270.941376 
	C295.029144,271.074158 319.360199,271.016235 343.690918,271.008606 
	C345.188141,271.008148 346.810364,271.269623 348.142120,270.778809 
	C349.164673,270.401917 350.453186,269.038940 350.464050,268.101044 
	C350.475098,267.146271 349.247192,265.724823 348.237427,265.323090 
	C346.924957,264.800903 345.292358,265.028778 343.797485,265.028015 
	C321.133270,265.016113 298.469025,265.019684 275.804810,265.019623 
	C274.059601,265.019623 272.314392,265.019623 269.712524,265.019623 
	C274.656006,256.450439 279.318329,248.807053 283.504333,240.911163 
	C285.351807,237.426361 287.644501,236.442322 291.424469,236.482986 
	C308.920563,236.671204 326.420013,236.606308 343.917725,236.521835 
	C346.529877,236.509247 350.339203,237.539673 350.366821,233.349319 
	C350.373138,232.391495 346.324677,230.611816 344.114014,230.565582 
	C331.287659,230.297287 318.452850,230.434052 305.620880,230.433884 
	C300.655975,230.433807 295.691071,230.433853 289.736969,230.433853 
	C294.549835,222.039383 299.090637,214.537094 303.184021,206.798141 
	C305.141022,203.098206 307.478973,201.094162 312.680634,201.980362 
z"/>
<path fill="#95CDD4" opacity="1.000000" stroke="none" 
	d="
M162.988831,422.950500 
	C221.602707,422.966492 280.216583,422.984558 338.830475,422.982758 
	C339.979950,422.982697 341.129456,422.748901 342.936401,422.257263 
	C356.277588,409.231171 368.993927,396.604401 381.632996,383.900726 
	C389.463440,376.030212 397.176575,368.042999 404.942383,360.108185 
	C404.971222,297.181427 404.998993,234.254684 405.029663,171.327942 
	C405.038483,153.182404 405.055725,135.036850 405.109314,116.417763 
	C411.977203,115.964180 418.807159,116.093857 425.631653,115.955414 
	C428.797485,115.891190 430.371002,116.915726 430.034637,120.237373 
	C429.934479,121.226311 430.022705,122.234207 430.022705,123.233421 
	C430.022919,208.666260 429.996887,294.099152 430.102173,379.531860 
	C430.107300,383.679077 429.006500,386.665283 426.010437,389.619507 
	C407.630280,407.742676 389.402588,426.021423 371.240234,444.363342 
	C368.709076,446.919495 366.164948,448.077240 362.506714,448.071686 
	C296.392181,447.971527 230.277344,447.954987 164.162933,448.091980 
	C159.495911,448.101685 157.554031,447.042419 157.900055,442.043030 
	C158.313049,436.076172 157.991180,430.058472 158.394318,423.539154 
	C160.196945,422.993866 161.592896,422.972198 162.988831,422.950500 
z"/>
<path fill="#BE8039" opacity="1.000000" stroke="none" 
	d="
M163.057327,422.490204 
	C161.592896,422.972198 160.196945,422.993866 158.387848,423.079529 
	C149.852936,423.143524 141.731171,423.143524 132.935242,423.143524 
	C132.935242,333.038727 132.935242,243.542328 133.346054,153.592896 
	C143.511826,154.080521 153.266800,155.021210 163.021759,155.961914 
	C163.081665,157.289856 163.193878,158.617813 163.194000,159.945755 
	C163.201874,246.309280 163.200958,332.672791 163.197220,419.036316 
	C163.197174,420.034180 163.150650,421.032043 163.057327,422.490204 
z"/>
<path fill="#BD803A" opacity="1.000000" stroke="none" 
	d="
M162.465240,91.051636 
	C163.002014,110.114189 163.074707,129.163910 162.698303,148.838348 
	C152.482407,148.485733 142.715591,147.508423 132.945282,146.021317 
	C132.930649,136.730103 132.919540,127.948677 133.222748,118.999268 
	C137.017334,116.460793 136.936630,114.431694 132.956589,112.776413 
	C132.956589,105.721855 132.956589,98.667305 132.956589,91.038803 
	C142.957886,91.038803 152.479507,91.038803 162.465240,91.051636 
z"/>
<path fill="#334754" opacity="1.000000" stroke="none" 
	d="
M132.948776,146.531113 
	C142.715591,147.508423 152.482407,148.485733 162.627518,149.313065 
	C173.524857,149.093643 183.510468,146.886673 192.521530,141.300446 
	C196.102005,139.080811 199.327072,136.334000 198.169525,130.681091 
	C194.553253,124.257538 188.964523,121.765961 182.864883,120.044563 
	C181.977585,118.786064 181.090302,117.527565 180.203003,116.269066 
	C181.443970,115.472275 182.684921,114.675484 184.647919,114.031166 
	C192.216248,116.783607 198.652466,119.990532 203.089828,126.155922 
	C206.045578,134.555420 204.562302,139.785950 197.404434,145.154190 
	C189.063553,151.409653 179.246826,153.589127 169.185349,154.987854 
	C167.388046,155.237717 165.586517,155.457062 163.404358,155.826202 
	C153.266800,155.021210 143.511826,154.080521 133.359436,153.132202 
	C127.934273,150.969086 122.571587,149.364761 117.943352,146.551941 
	C105.449142,138.958557 105.318535,127.046844 117.655312,119.315392 
	C122.090401,116.535927 127.328499,115.037766 132.578354,112.865631 
	C136.936630,114.431694 137.017334,116.460793 132.860077,119.014862 
	C127.358604,121.688919 122.124710,123.627327 117.820343,126.819221 
	C113.162674,130.273117 113.213882,135.699326 117.972687,139.040680 
	C122.490532,142.212830 127.920113,144.086472 132.948776,146.531113 
z"/>
<path fill="#314552" opacity="1.000000" stroke="none" 
	d="
M312.211121,201.980362 
	C307.478973,201.094162 305.141022,203.098206 303.184021,206.798141 
	C299.090637,214.537094 294.549835,222.039383 289.736969,230.433853 
	C295.691071,230.433853 300.655975,230.433807 305.620880,230.433884 
	C318.452850,230.434052 331.287659,230.297287 344.114014,230.565582 
	C346.324677,230.611816 350.373138,232.391495 350.366821,233.349319 
	C350.339203,237.539673 346.529877,236.509247 343.917725,236.521835 
	C326.420013,236.606308 308.920563,236.671204 291.424469,236.482986 
	C287.644501,236.442322 285.351807,237.426361 283.504333,240.911163 
	C279.318329,248.807053 274.656006,256.450439 269.712524,265.019623 
	C272.314392,265.019623 274.059601,265.019623 275.804810,265.019623 
	C298.469025,265.019684 321.133270,265.016113 343.797485,265.028015 
	C345.292358,265.028778 346.924957,264.800903 348.237427,265.323090 
	C349.247192,265.724823 350.475098,267.146271 350.464050,268.101044 
	C350.453186,269.038940 349.164673,270.401917 348.142120,270.778809 
	C346.810364,271.269623 345.188141,271.008148 343.690918,271.008606 
	C319.360199,271.016235 295.029144,271.074158 270.699158,270.941376 
	C267.497864,270.923920 265.593872,271.724121 264.006805,274.667206 
	C259.602386,282.834808 254.827209,290.802490 249.682220,299.746735 
	C252.282288,299.746735 254.017914,299.746735 255.753525,299.746735 
	C284.917053,299.746735 314.080597,299.746246 343.244110,299.748199 
	C344.577057,299.748291 346.057007,299.409393 347.204132,299.877014 
	C348.514740,300.411255 349.529083,301.672089 350.672180,302.617157 
	C349.539246,303.630676 348.556885,305.022949 347.230652,305.550232 
	C345.927704,306.068237 344.275452,305.729279 342.776489,305.729492 
	C312.279755,305.733795 281.782623,305.808594 251.286835,305.638519 
	C247.405991,305.616852 245.058609,306.673065 243.518646,310.241455 
	C242.405090,312.821747 241.013687,315.404083 239.201813,317.519196 
	C237.949997,318.980560 235.769394,319.646240 234.003845,320.667511 
	C234.095200,318.589569 233.701614,316.331085 234.392258,314.476288 
	C235.412979,311.735046 237.204315,309.280762 239.219223,305.732788 
	C234.365005,305.732788 230.315308,305.738434 226.265656,305.729889 
	C224.766495,305.726746 223.071518,306.122009 221.820374,305.554291 
	C220.416870,304.917450 219.414673,303.396057 218.237885,302.259521 
	C219.496002,301.427124 220.722794,299.937744 222.017685,299.875977 
	C227.671112,299.606201 233.357376,299.965271 239.002792,299.621338 
	C240.817520,299.510712 243.292511,298.406616 244.186035,296.964386 
	C249.263153,288.769501 253.952728,280.334534 259.078033,271.454681 
	C257.438232,271.275818 256.239899,271.034943 255.040878,271.031494 
	C244.542084,271.001434 234.039429,271.155121 223.547897,270.877380 
	C221.752853,270.829865 220.005157,268.993439 218.235596,267.983429 
	C220.060959,266.995758 221.868042,265.194427 223.714630,265.152954 
	C235.374161,264.891113 247.044189,264.910217 258.706726,265.092712 
	C261.784607,265.140869 263.499237,264.149475 264.964935,261.460205 
	C269.315643,253.477432 273.947906,245.648132 278.946167,236.928268 
	C276.245789,236.769623 274.515625,236.582245 272.785217,236.579712 
	C257.120270,236.556778 241.455276,236.570282 225.790283,236.559433 
	C224.292953,236.558395 222.670898,236.803726 221.335373,236.312775 
	C220.131119,235.870071 219.240601,234.573929 218.211716,233.654190 
	C219.300903,232.620270 220.229385,231.199310 221.524582,230.661453 
	C222.816605,230.124939 224.476105,230.439758 225.974533,230.439041 
	C242.972702,230.430908 259.974121,230.252731 276.966888,230.555069 
	C281.486877,230.635468 283.881256,229.110870 285.911499,225.242828 
	C289.911469,217.622131 294.398956,210.257355 299.147400,201.980377 
	C296.594116,201.980377 294.850891,201.980377 293.107697,201.980377 
	C270.443451,201.980362 247.779236,201.981918 225.115005,201.976395 
	C223.783218,201.976074 222.281204,202.293060 221.166367,201.785690 
	C219.995834,201.252945 218.484573,199.931717 218.446136,198.905487 
	C218.411606,197.984055 220.020905,196.639038 221.187347,196.138077 
	C222.318634,195.652191 223.809189,195.988342 225.141953,195.988174 
	C249.306030,195.985229 273.471069,195.876724 297.633179,196.095856 
	C301.562592,196.131485 303.562805,194.844101 305.350006,191.506104 
	C309.574951,183.614899 314.215820,175.946381 319.227264,167.253296 
	C316.593567,167.253296 314.865021,167.253326 313.136505,167.253296 
	C283.972961,167.252762 254.809433,167.252747 225.645905,167.250076 
	C224.313019,167.249954 222.832123,167.587204 221.686295,167.117767 
	C220.378067,166.581802 219.368134,165.317703 218.228577,164.370026 
	C219.365662,163.361404 220.353836,161.976013 221.682068,161.451096 
	C222.987274,160.935272 224.637756,161.271103 226.136734,161.270889 
	C256.466797,161.266388 286.797546,161.169525 317.126190,161.378296 
	C321.408600,161.407761 323.943939,160.157104 325.641235,156.332809 
	C326.783173,153.759750 328.139648,151.169067 329.938599,149.041580 
	C331.068207,147.705627 333.194733,147.212585 334.873993,146.341370 
	C334.877716,148.268570 335.414886,150.402252 334.766632,152.077133 
	C333.648346,154.966476 331.793091,157.570572 329.694794,161.267303 
	C334.528992,161.267303 338.574707,161.262192 342.620392,161.269974 
	C344.119690,161.272858 345.812683,160.875473 347.066589,161.439896 
	C348.471100,162.072128 349.478027,163.587677 350.657959,164.718857 
	C349.403778,165.558365 348.182739,167.057724 346.889618,167.122711 
	C341.403839,167.398422 335.891663,167.389999 330.399261,167.197418 
	C327.403687,167.092392 325.535950,167.944351 324.026062,170.720795 
	C319.525208,178.997025 314.709991,187.102295 309.608948,195.986008 
	C321.100494,195.986008 331.706787,195.985703 342.313110,195.986359 
	C343.812927,195.986450 345.460449,195.601349 346.773010,196.098434 
	C348.221405,196.646942 349.362549,198.006668 350.637543,199.013062 
	C349.317230,199.998169 348.033722,201.770599 346.670288,201.834412 
	C340.185028,202.137894 333.677979,201.977463 327.178711,201.979980 
	C322.346008,201.981857 317.513336,201.980362 312.211121,201.980362 
z"/>
<path fill="#586A73" opacity="1.000000" stroke="none" 
	d="
M404.479065,360.077515 
	C397.176575,368.042999 389.463440,376.030212 381.632996,383.900726 
	C368.993927,396.604401 356.277588,409.231171 343.276733,422.029541 
	C342.959534,401.716309 342.959534,381.263977 342.959534,360.046814 
	C363.543701,360.046814 383.779694,360.046814 404.479065,360.077515 
z"/>
<path fill="#1E7B45" opacity="1.000000" stroke="none" 
	d="
M227.637665,366.743622 
	C236.066391,357.944244 248.197662,357.739441 257.623169,366.732666 
	C252.582397,372.142761 247.676956,377.055237 242.661957,381.901306 
	C242.552399,381.834900 242.297348,381.859039 242.136688,381.549927 
	C237.196579,376.408447 232.417114,371.576050 227.637665,366.743622 
z"/>
<path fill="#FE5226" opacity="1.000000" stroke="none" 
	d="
M242.297348,381.859039 
	C242.297348,381.859039 242.552399,381.834900 242.885513,382.166718 
	C248.174881,387.150879 253.131134,391.803253 258.087402,396.455597 
	C250.389313,405.147705 238.131378,405.639832 228.283722,397.064819 
	C232.974045,391.603912 237.635696,386.731476 242.297348,381.859039 
z"/>
<path fill="#FC52BE" opacity="1.000000" stroke="none" 
	d="
M258.405975,396.285889 
	C253.131134,391.803253 248.174881,387.150879 242.995071,382.233093 
	C247.676956,377.055237 252.582397,372.142761 257.773285,367.033875 
	C266.337708,374.693329 266.620178,387.114624 258.405975,396.285889 
z"/>
<path fill="#EC5665" opacity="1.000000" stroke="none" 
	d="
M242.136688,381.549927 
	C237.635696,386.731476 232.974045,391.603912 228.130280,396.758759 
	C219.108795,388.887085 218.754364,376.778992 227.354431,366.913330 
	C232.417114,371.576050 237.196579,376.408447 242.136688,381.549927 
z"/>
<path fill="#EFB647" opacity="1.000000" stroke="none" 
	d="
M203.376282,125.941269 
	C198.652466,119.990532 192.216248,116.783607 185.012054,114.018127 
	C188.426147,108.213943 193.957458,106.752052 199.559326,109.913269 
	C205.218536,113.106834 206.809570,119.238281 203.376282,125.941269 
z"/>
<path fill="#EEB446" opacity="1.000000" stroke="none" 
	d="
M182.877731,120.431946 
	C188.964523,121.765961 194.553253,124.257538 197.977737,130.377777 
	C188.687134,131.667679 184.335968,128.822052 182.877731,120.431946 
z"/>
<path fill="#A4E0E7" opacity="1.000000" stroke="none" 
	d="
M132.945282,146.021317 
	C127.920113,144.086472 122.490532,142.212830 117.972687,139.040680 
	C113.213882,135.699326 113.162674,130.273117 117.820343,126.819221 
	C122.124710,123.627327 127.358604,121.688919 132.545776,119.182854 
	C132.919540,127.948677 132.930649,136.730103 132.945282,146.021317 
z"/>
</svg>