<svg xmlns="http://www.w3.org/2000/svg" width="19" height="18" viewBox="0 0 19 18" fill="none">
<path d="M0.5 8.98683C1.28196 4.72766 5.01456 1.5 9.5 1.5C13.9854 1.5 17.7172 4.72766 18.5 8.98683C17.718 13.246 13.9854 16.4737 9.5 16.4737C5.01456 16.4737 1.28279 13.246 0.5 8.98683ZM9.5 13.1462C10.6031 13.1462 11.6611 12.708 12.4411 11.9279C13.2211 11.1479 13.6593 10.09 13.6593 8.98683C13.6593 7.8837 13.2211 6.82575 12.4411 6.04572C11.6611 5.2657 10.6031 4.82748 9.5 4.82748C8.39687 4.82748 7.33893 5.2657 6.5589 6.04572C5.77887 6.82575 5.34065 7.8837 5.34065 8.98683C5.34065 10.09 5.77887 11.1479 6.5589 11.9279C7.33893 12.708 8.39687 13.1462 9.5 13.1462ZM9.5 11.4824C8.83812 11.4824 8.20335 11.2195 7.73534 10.7515C7.26732 10.2835 7.00439 9.64871 7.00439 8.98683C7.00439 8.32495 7.26732 7.69018 7.73534 7.22217C8.20335 6.75415 8.83812 6.49122 9.5 6.49122C10.1619 6.49122 10.7966 6.75415 11.2647 7.22217C11.7327 7.69018 11.9956 8.32495 11.9956 8.98683C11.9956 9.64871 11.7327 10.2835 11.2647 10.7515C10.7966 11.2195 10.1619 11.4824 9.5 11.4824Z" fill="#1762CA"/>
</svg>