<svg width="30" height="34" viewBox="0 0 30 34" fill="none" xmlns="http://www.w3.org/2000/svg">
<path d="M28.3333 33.6673H1.66667C1.22464 33.6673 0.800716 33.4917 0.488155 33.1792C0.175595 32.8666 0 32.4427 0 32.0007V2.00065C0 1.55862 0.175595 1.1347 0.488155 0.82214C0.800716 0.509579 1.22464 0.333984 1.66667 0.333984H28.3333C28.7754 0.333984 29.1993 0.509579 29.5118 0.82214C29.8244 1.1347 30 1.55862 30 2.00065V32.0007C30 32.4427 29.8244 32.8666 29.5118 33.1792C29.1993 33.4917 28.7754 33.6673 28.3333 33.6673ZM8.33333 8.66732V12.0007H21.6667V8.66732H8.33333ZM8.33333 15.334V18.6673H21.6667V15.334H8.33333ZM8.33333 22.0007V25.334H16.6667V22.0007H8.33333Z" fill="black"/>
</svg>
