<svg width="24" height="25" viewBox="0 0 24 25" fill="none" xmlns="http://www.w3.org/2000/svg">
<path d="M17.25 12.1423V13.3955C17.25 13.6909 16.9828 13.9326 16.6562 13.9326H8.34375C8.01719 13.9326 7.75 13.6909 7.75 13.3955V12.1423C7.75 11.8468 8.01719 11.6051 8.34375 11.6051H16.6562C16.9828 11.6051 17.25 11.8468 17.25 12.1423ZM16.6562 15.3649H8.34375C8.01719 15.3649 7.75 15.6066 7.75 15.902V17.1553C7.75 17.4507 8.01719 17.6924 8.34375 17.6924H16.6562C16.9828 17.6924 17.25 17.4507 17.25 17.1553V15.902C17.25 15.6066 16.9828 15.3649 16.6562 15.3649ZM22 6.94572V21.8102C22 22.9963 20.9362 23.9587 19.625 23.9587H5.375C4.0638 23.9587 3 22.9963 3 21.8102V3.19043C3 2.00431 4.0638 1.04199 5.375 1.04199H15.4737C16.1021 1.04199 16.7057 1.27026 17.151 1.6731L21.3023 5.42839C21.7477 5.82674 22 6.37728 22 6.94572ZM15.6667 3.36499V6.77116H19.432L15.6667 3.36499ZM19.625 21.8102V8.9196H14.4792C13.8211 8.9196 13.2917 8.44067 13.2917 7.84538V3.19043H5.375V21.8102H19.625Z" fill="#0F3566"/>
</svg>
