<svg width="20" height="18" viewBox="0 0 20 18" fill="none" xmlns="http://www.w3.org/2000/svg">
<path d="M1 0H19C19.2652 0 19.5196 0.105357 19.7071 0.292893C19.8946 0.48043 20 0.734784 20 1V17C20 17.2652 19.8946 17.5196 19.7071 17.7071C19.5196 17.8946 19.2652 18 19 18H1C0.734784 18 0.48043 17.8946 0.292893 17.7071C0.105357 17.5196 0 17.2652 0 17V1C0 0.734784 0.105357 0.48043 0.292893 0.292893C0.48043 0.105357 0.734784 0 1 0ZM5.05 4.121C4.39903 4.77034 3.88281 5.54192 3.531 6.39141C3.17919 7.2409 2.99873 8.15154 3 9.071C3 11.004 3.784 12.754 5.05 14.021L6.464 12.607C5.99891 12.143 5.63013 11.5917 5.37888 10.9847C5.12764 10.3776 4.99887 9.72695 5 9.07C5 7.69 5.56 6.44 6.464 5.535L5.05 4.12V4.121ZM14.95 4.121L13.536 5.536C14.0007 5.99962 14.3693 6.55049 14.6205 7.15696C14.8718 7.76342 15.0007 8.41355 15 9.07C15 10.45 14.44 11.7 13.536 12.606L14.95 14.02C15.601 13.3707 16.1172 12.5991 16.469 11.7496C16.8208 10.9001 17.0013 9.98946 17 9.07C17.0013 8.15054 16.8208 7.2399 16.469 6.39041C16.1172 5.54092 15.601 4.76934 14.95 4.12V4.121ZM10 12.071C10.7956 12.071 11.5587 11.7549 12.1213 11.1923C12.6839 10.6297 13 9.86665 13 9.071C13 8.27535 12.6839 7.51229 12.1213 6.94968C11.5587 6.38707 10.7956 6.071 10 6.071C9.20435 6.071 8.44129 6.38707 7.87868 6.94968C7.31607 7.51229 7 8.27535 7 9.071C7 9.86665 7.31607 10.6297 7.87868 11.1923C8.44129 11.7549 9.20435 12.071 10 12.071ZM10 10.071C9.73478 10.071 9.48043 9.96564 9.29289 9.77811C9.10536 9.59057 9 9.33622 9 9.071C9 8.80578 9.10536 8.55143 9.29289 8.36389C9.48043 8.17636 9.73478 8.071 10 8.071C10.2652 8.071 10.5196 8.17636 10.7071 8.36389C10.8946 8.55143 11 8.80578 11 9.071C11 9.33622 10.8946 9.59057 10.7071 9.77811C10.5196 9.96564 10.2652 10.071 10 10.071Z" fill="#FDBA30"/>
</svg>
