<svg width="20" height="18" viewBox="0 0 20 18" fill="none" xmlns="http://www.w3.org/2000/svg">
<g clip-path="url(#clip0_50_8539)">
<path d="M12.7486 9.98462H12.1183L11.895 9.79473C12.6768 8.99295 13.1475 7.95204 13.1475 6.81971C13.1475 4.29481 10.8259 2.24817 7.96192 2.24817C5.0979 2.24817 2.77637 4.29481 2.77637 6.81971C2.77637 9.34461 5.0979 11.3913 7.96192 11.3913C9.24635 11.3913 10.4271 10.9763 11.3365 10.287L11.5519 10.484V11.0396L15.5408 14.5491L16.7295 13.5012L12.7486 9.98462ZM7.96192 9.98462C5.97546 9.98462 4.37192 8.57096 4.37192 6.81971C4.37192 5.06846 5.97546 3.6548 7.96192 3.6548C9.94839 3.6548 11.5519 5.06846 11.5519 6.81971C11.5519 8.57096 9.94839 9.98462 7.96192 9.98462Z" fill="white"/>
</g>
<defs>
<clipPath id="clip0_50_8539">
<rect width="19.1467" height="16.8795" fill="white" transform="translate(0.382812 0.138229)"/>
</clipPath>
</defs>
</svg>
