<svg version="1.1" id="Layer_1" xmlns="http://www.w3.org/2000/svg" xmlns:xlink="http://www.w3.org/1999/xlink" x="0px" y="0px"
	 width="100%" viewBox="0 0 512 512" enable-background="new 0 0 512 512" xml:space="preserve">
<path fill="none" opacity="1.000000" stroke="none" 
	d="
M34.999996,513.000000 
	C23.672867,513.000000 12.345734,513.000000 1.013950,513.000000 
	C1.009300,342.432892 1.009300,171.865799 1.009300,1.000000 
	C85.353996,1.000000 169.708344,1.000000 254.453247,1.340695 
	C252.603241,3.583591 250.048660,5.219837 248.174576,7.432474 
	C238.258606,19.139671 228.460709,30.948240 218.722641,42.804432 
	C205.378494,59.051037 192.180801,75.418068 178.814148,91.645988 
	C168.638580,103.999718 158.183136,116.125114 148.152649,128.593781 
	C146.630600,130.485825 145.714127,134.042770 146.442993,136.169861 
	C146.962540,137.686066 150.699722,138.848724 153.018204,138.879593 
	C169.847260,139.103638 186.680679,138.994324 203.512695,139.010132 
	C204.947388,139.011475 206.381927,139.155869 208.000000,139.243774 
	C208.000000,141.400116 208.000000,143.213287 208.000000,145.026459 
	C208.000000,199.522263 207.999695,254.018082 208.000305,308.513885 
	C208.000412,317.829376 210.748657,320.906281 220.083908,320.954315 
	C245.747925,321.086426 271.419586,321.326874 297.074036,320.814331 
	C305.520996,320.645630 307.098145,317.658691 307.080078,310.842865 
	C306.936340,256.680756 307.000000,202.518082 307.000000,148.355591 
	C307.000000,146.604965 307.000000,144.854340 307.000000,143.000000 
	C315.839661,143.000000 324.000671,143.128265 332.155945,142.966614 
	C341.735321,142.776733 351.319183,142.487915 360.879517,141.894333 
	C363.246521,141.747360 367.465332,140.323517 367.497772,139.372940 
	C367.605042,136.225571 366.994446,132.454010 365.214325,129.948578 
	C358.451813,120.430519 351.079620,111.347672 344.014862,102.041771 
	C334.214508,89.132454 324.559753,76.112099 314.705872,63.244022 
	C304.540497,49.969120 294.381775,36.682182 283.889618,23.666971 
	C277.586395,15.847996 270.651184,8.538477 264.000000,1.000001 
	C346.954193,1.000000 429.908417,1.000000 512.931274,1.000000 
	C512.931274,171.666656 512.931274,342.333313 512.925781,513.000000 
	C502.592590,513.000000 492.264954,513.000000 481.558105,512.646240 
	C481.689514,511.889404 482.139679,511.328918 482.719543,511.106232 
	C496.244415,505.912476 504.921143,493.773621 504.955078,479.547882 
	C505.071930,430.567078 505.000000,381.585785 505.000000,332.604675 
	C505.000000,330.830597 505.000000,329.056519 505.000000,327.247803 
	C481.429504,327.247803 458.364044,327.247803 434.912964,327.247803 
	C434.912964,366.222931 434.912964,404.952271 434.912964,443.806274 
	C316.153229,443.806274 197.780655,443.806274 78.844360,443.806274 
	C78.844360,404.767395 78.844360,365.918304 78.844360,327.355347 
	C55.212711,327.355347 32.145538,327.355347 9.000043,327.355347 
	C9.000043,379.020599 8.792417,430.332123 9.189795,481.638947 
	C9.262058,490.969147 13.354413,499.533478 21.581200,505.101074 
	C25.871195,508.004395 30.515642,510.383911 34.999996,513.000000 
z"/>
<path fill="currentColor" opacity="1.000000" stroke="none" 
	d="
M35.468655,513.000000 
	C30.515642,510.383911 25.871195,508.004395 21.581200,505.101074 
	C13.354413,499.533478 9.262058,490.969147 9.189795,481.638947 
	C8.792417,430.332123 9.000043,379.020599 9.000043,327.355347 
	C32.145538,327.355347 55.212711,327.355347 78.844360,327.355347 
	C78.844360,365.918304 78.844360,404.767395 78.844360,443.806274 
	C197.780655,443.806274 316.153229,443.806274 434.912964,443.806274 
	C434.912964,404.952271 434.912964,366.222931 434.912964,327.247803 
	C458.364044,327.247803 481.429504,327.247803 505.000000,327.247803 
	C505.000000,329.056519 505.000000,330.830597 505.000000,332.604675 
	C505.000000,381.585785 505.071930,430.567078 504.955078,479.547882 
	C504.921143,493.773621 496.244415,505.912476 482.719543,511.106232 
	C482.139679,511.328918 481.689514,511.889404 481.089478,512.646240 
	C332.645782,513.000000 184.291550,513.000000 35.468655,513.000000 
z"/>
<path fill="currentColor" opacity="1.000000" stroke="none" 
	d="
M263.550018,1.000001 
	C270.651184,8.538477 277.586395,15.847996 283.889618,23.666971 
	C294.381775,36.682182 304.540497,49.969120 314.705872,63.244022 
	C324.559753,76.112099 334.214508,89.132454 344.014862,102.041771 
	C351.079620,111.347672 358.451813,120.430519 365.214325,129.948578 
	C366.994446,132.454010 367.605042,136.225571 367.497772,139.372940 
	C367.465332,140.323517 363.246521,141.747360 360.879517,141.894333 
	C351.319183,142.487915 341.735321,142.776733 332.155945,142.966614 
	C324.000671,143.128265 315.839661,143.000000 307.000000,143.000000 
	C307.000000,144.854340 307.000000,146.604965 307.000000,148.355591 
	C307.000000,202.518082 306.936340,256.680756 307.080078,310.842865 
	C307.098145,317.658691 305.520996,320.645630 297.074036,320.814331 
	C271.419586,321.326874 245.747925,321.086426 220.083908,320.954315 
	C210.748657,320.906281 208.000412,317.829376 208.000305,308.513885 
	C207.999695,254.018082 208.000000,199.522263 208.000000,145.026459 
	C208.000000,143.213287 208.000000,141.400116 208.000000,139.243774 
	C206.381927,139.155869 204.947388,139.011475 203.512695,139.010132 
	C186.680679,138.994324 169.847260,139.103638 153.018204,138.879593 
	C150.699722,138.848724 146.962540,137.686066 146.442993,136.169861 
	C145.714127,134.042770 146.630600,130.485825 148.152649,128.593781 
	C158.183136,116.125114 168.638580,103.999718 178.814148,91.645988 
	C192.180801,75.418068 205.378494,59.051037 218.722641,42.804432 
	C228.460709,30.948240 238.258606,19.139671 248.174576,7.432474 
	C250.048660,5.219837 252.603241,3.583591 254.921906,1.340695 
	C257.700012,1.000000 260.400024,1.000000 263.550018,1.000001 
z"/>
</svg>