<svg width="9" height="9" viewBox="0 0 9 9" fill="none" xmlns="http://www.w3.org/2000/svg">
<g id="Group">
<path id="Vector" d="M4.74992 1.75C4.38325 1.75 4.08325 2.05 4.08325 2.41667C4.08325 2.78333 4.38325 3.08333 4.74992 3.08333C5.11659 3.08333 5.41659 2.78333 5.41659 2.41667C5.41659 2.05 5.11659 1.75 4.74992 1.75ZM4.74992 6.41667C4.38325 6.41667 4.08325 6.71667 4.08325 7.08333C4.08325 7.45 4.38325 7.75 4.74992 7.75C5.11659 7.75 5.41659 7.45 5.41659 7.08333C5.41659 6.71667 5.11659 6.41667 4.74992 6.41667ZM4.74992 4.08333C4.38325 4.08333 4.08325 4.38333 4.08325 4.75C4.08325 5.11667 4.38325 5.41667 4.74992 5.41667C5.11659 5.41667 5.41659 5.11667 5.41659 4.75C5.41659 4.38333 5.11659 4.08333 4.74992 4.08333Z" fill="black"/>
</g>
</svg>
