<svg width="18" height="18" viewBox="0 0 18 18" fill="none" xmlns="http://www.w3.org/2000/svg">
<path d="M4.83333 4.83268V1.49935C4.83333 1.27834 4.92113 1.06637 5.07741 0.910093C5.23369 0.753813 5.44565 0.666016 5.66666 0.666016H16.5C16.721 0.666016 16.933 0.753813 17.0893 0.910093C17.2455 1.06637 17.3333 1.27834 17.3333 1.49935V12.3327C17.3333 12.5537 17.2455 12.7657 17.0893 12.9219C16.933 13.0782 16.721 13.166 16.5 13.166H13.1667V16.4935C13.1667 16.9569 12.7925 17.3327 12.3275 17.3327H1.50583C1.3956 17.3328 1.28643 17.3112 1.18457 17.269C1.0827 17.2269 0.990152 17.1651 0.912206 17.0871C0.834261 17.0092 0.772452 16.9166 0.730319 16.8148C0.688186 16.7129 0.666555 16.6037 0.666665 16.4935L0.669165 5.67185C0.669165 5.20852 1.04333 4.83268 1.50833 4.83268H4.83333ZM6.5 4.83268H12.3275C12.7908 4.83268 13.1667 5.20685 13.1667 5.67185V11.4993H15.6667V2.33268H6.5V4.83268Z" fill="black"/>
</svg>
