<svg width="16" height="16" viewBox="0 0 16 16" fill="none" xmlns="http://www.w3.org/2000/svg">
<g id="IconUPC/Navigation/Nav-Arrow-Down">
<path id="Vector" d="M7.99173 9.20706L3.44629 5.21882C3.35937 5.13982 3.25232 5.07898 3.13343 5.04101C3.01455 5.00305 2.88702 4.98898 2.76074 4.9999C2.63446 5.01082 2.51283 5.04644 2.40527 5.10399C2.29771 5.16154 2.20711 5.23948 2.1405 5.33177C2.04815 5.4537 1.99933 5.59595 2.00001 5.74118C2.00124 5.83799 2.02367 5.93376 2.06612 6.02353C2.10693 6.11328 2.1688 6.19496 2.24794 6.26353L7.39669 10.7812C7.47379 10.8505 7.56657 10.9057 7.66942 10.9435C7.77453 10.9798 7.88665 10.9989 8 11C8.11078 10.9998 8.22039 10.9806 8.32231 10.9435C8.42811 10.9066 8.52379 10.8513 8.6033 10.7812L13.7768 6.25647C13.9198 6.118 13.9991 5.93992 14 5.75529C14.0006 5.66071 13.979 5.56699 13.9364 5.47968C13.8938 5.39237 13.8311 5.31327 13.7521 5.24706C13.6762 5.17908 13.5852 5.12472 13.4845 5.08714C13.3837 5.04957 13.2752 5.02954 13.1653 5.02824C13.0537 5.02581 12.9428 5.04269 12.8391 5.07788C12.7354 5.11306 12.6411 5.16581 12.562 5.23294L7.99173 9.20706Z" fill="#20B2AA"/>
</g>
</svg>
