<svg version="1.1" id="Layer_1" xmlns="http://www.w3.org/2000/svg" xmlns:xlink="http://www.w3.org/1999/xlink" x="0px" y="0px"
	 width="100%" viewBox="0 0 512 512" enable-background="new 0 0 512 512" xml:space="preserve">
<path fill="none" opacity="1.000000" stroke="none" 
	d="
M272.000000,513.000000 
	C181.355331,513.000000 91.210663,513.000000 1.032996,513.000000 
	C1.032996,342.396973 1.032996,171.793930 1.032996,1.095450 
	C171.561356,1.095450 342.122772,1.095450 512.842102,1.095450 
	C512.842102,171.666550 512.842102,342.333252 512.842102,513.000000 
	C432.793915,513.000000 352.646942,513.000000 272.000000,513.000000 
M432.990326,95.487976 
	C426.664062,89.159164 420.497192,82.660835 413.981659,76.533272 
	C394.262848,57.988659 371.459167,44.212719 346.568817,33.837490 
	C318.188751,22.007612 288.473938,16.119413 257.818695,16.216642 
	C243.806320,16.261087 229.704529,17.998835 215.813004,20.093941 
	C186.011856,24.588530 158.476593,35.620518 132.967804,51.502724 
	C110.552261,65.459023 90.690788,82.438805 74.211609,103.241043 
	C60.314667,120.783646 48.586803,139.592453 40.058952,160.321274 
	C30.716385,183.030441 24.797789,206.511261 22.795433,231.093185 
	C21.275524,249.752335 21.415693,268.342682 24.299559,286.714447 
	C28.466127,313.257690 36.559338,338.621613 49.586868,362.372284 
	C62.482418,385.882324 78.409874,406.791412 98.251350,424.911102 
	C117.457230,442.450409 138.747070,456.511993 162.586349,466.839630 
	C196.640152,481.592377 232.012192,488.274963 269.226837,486.166504 
	C294.177338,484.752899 318.215088,479.971283 341.456360,470.994171 
	C375.946747,457.671997 405.712738,437.517670 430.611816,410.027679 
	C447.376343,391.518616 460.951050,371.103149 471.359680,348.414703 
	C483.273407,322.445435 490.031586,295.154877 491.813049,266.812927 
	C493.327454,242.719437 491.577850,218.679398 485.545013,195.141312 
	C480.028259,173.616776 472.487549,152.776291 460.728729,133.907440 
	C452.516174,120.729057 442.630096,108.593567 432.990326,95.487976 
z"/>
<path fill="#457fd3" opacity="1.000000" stroke="none" 
	d="
M433.240906,95.740128 
	C442.630096,108.593567 452.516174,120.729057 460.728729,133.907440 
	C472.487549,152.776291 480.028259,173.616776 485.545013,195.141312 
	C491.577850,218.679398 493.327454,242.719437 491.813049,266.812927 
	C490.031586,295.154877 483.273407,322.445435 471.359680,348.414703 
	C460.951050,371.103149 447.376343,391.518616 430.611816,410.027679 
	C405.712738,437.517670 375.946747,457.671997 341.456360,470.994171 
	C318.215088,479.971283 294.177338,484.752899 269.226837,486.166504 
	C232.012192,488.274963 196.640152,481.592377 162.586349,466.839630 
	C138.747070,456.511993 117.457230,442.450409 98.251350,424.911102 
	C78.409874,406.791412 62.482418,385.882324 49.586868,362.372284 
	C36.559338,338.621613 28.466127,313.257690 24.299559,286.714447 
	C21.415693,268.342682 21.275524,249.752335 22.795433,231.093185 
	C24.797789,206.511261 30.716385,183.030441 40.058952,160.321274 
	C48.586803,139.592453 60.314667,120.783646 74.211609,103.241043 
	C90.690788,82.438805 110.552261,65.459023 132.967804,51.502724 
	C158.476593,35.620518 186.011856,24.588530 215.813004,20.093941 
	C229.704529,17.998835 243.806320,16.261087 257.818695,16.216642 
	C288.473938,16.119413 318.188751,22.007612 346.568817,33.837490 
	C371.459167,44.212719 394.262848,57.988659 413.981659,76.533272 
	C420.497192,82.660835 426.664062,89.159164 433.240906,95.740128 
M265.663483,146.674316 
	C250.263763,140.811081 236.636673,149.927078 236.531769,166.490082 
	C236.353424,194.647049 236.428177,222.805817 236.462494,250.963776 
	C236.473328,259.855652 240.364227,266.576080 248.196106,270.950256 
	C251.969330,273.057648 255.701935,275.238129 259.444092,277.400787 
	C295.284485,298.113647 331.086914,318.892548 366.980225,339.513245 
	C380.875366,347.496002 396.761475,339.873627 398.444275,324.401550 
	C399.502808,314.669037 394.570038,308.033081 386.326050,303.298187 
	C351.441681,283.262604 316.643280,263.077026 281.723450,243.103683 
	C278.540131,241.282883 277.408630,239.323364 277.434845,235.691910 
	C277.599731,212.866699 277.464966,190.039505 277.542572,167.213364 
	C277.572845,158.311981 274.352356,151.366165 265.663483,146.674316 
z"/>
<path fill="#FCFCFC" opacity="1.000000" stroke="none" 
	d="
M266.010925,146.826324 
	C274.352356,151.366165 277.572845,158.311981 277.542572,167.213364 
	C277.464966,190.039505 277.599731,212.866699 277.434845,235.691910 
	C277.408630,239.323364 278.540131,241.282883 281.723450,243.103683 
	C316.643280,263.077026 351.441681,283.262604 386.326050,303.298187 
	C394.570038,308.033081 399.502808,314.669037 398.444275,324.401550 
	C396.761475,339.873627 380.875366,347.496002 366.980225,339.513245 
	C331.086914,318.892548 295.284485,298.113647 259.444092,277.400787 
	C255.701935,275.238129 251.969330,273.057648 248.196106,270.950256 
	C240.364227,266.576080 236.473328,259.855652 236.462494,250.963776 
	C236.428177,222.805817 236.353424,194.647049 236.531769,166.490082 
	C236.636673,149.927078 250.263763,140.811081 266.010925,146.826324 
z"/>
</svg>