<svg version="1.1" id="Layer_1" xmlns="http://www.w3.org/2000/svg" xmlns:xlink="http://www.w3.org/1999/xlink" x="0px" y="0px"
	 width="100%" viewBox="0 0 512 512" enable-background="new 0 0 512 512" xml:space="preserve">
<path fill="#A82C1F" opacity="1.000000" stroke="none" 
	d="
M513.000000,236.000000 
	C513.000000,249.687561 513.000000,263.375122 512.693481,277.809265 
	C511.930298,282.662506 511.788940,286.834015 510.960480,290.864227 
	C507.936859,305.573395 505.671783,320.537018 501.301514,334.849182 
	C493.423859,360.647430 481.118866,384.429535 465.366486,406.442352 
	C452.532837,424.376404 437.625641,440.354004 420.783661,454.446198 
	C403.059601,469.276459 383.453705,481.324371 362.365906,490.812469 
	C341.911316,500.015625 320.623749,506.601471 298.411194,510.015839 
	C291.615143,511.060516 284.804138,512.007996 278.000000,513.000000 
	C264.312439,513.000000 250.624878,513.000000 236.190720,512.693481 
	C231.337524,511.930328 227.166107,511.788971 223.135941,510.960510 
	C208.426804,507.936859 193.450165,505.703979 179.153961,501.294037 
	C153.553635,493.397064 129.841629,481.323853 107.952904,465.655884 
	C90.019112,452.818848 73.988510,437.976318 59.868793,421.158417 
	C44.358936,402.684753 31.767698,382.228333 22.135099,360.110352 
	C13.458611,340.187744 7.044380,319.513519 3.942043,297.914154 
	C2.988058,291.272247 1.982139,284.637848 1.000000,278.000000 
	C1.000000,264.312439 1.000000,250.624878 1.306489,236.190735 
	C2.069656,231.337585 2.211071,227.166199 3.039486,223.136047 
	C6.062984,208.427063 8.283047,193.446259 12.698044,179.152328 
	C21.760651,149.811325 35.661381,122.610237 55.293297,98.932739 
	C66.897079,84.937744 79.735870,71.748329 93.338257,59.683746 
	C110.606010,44.368183 130.501343,32.611698 151.629532,23.174864 
	C172.109344,14.027629 193.376801,7.398439 215.589050,3.984097 
	C222.385025,2.939456 229.195938,1.991977 236.000000,1.000000 
	C249.687561,1.000000 263.375122,1.000000 277.809265,1.306485 
	C282.662384,2.069649 286.833710,2.211101 290.863831,3.039487 
	C305.572601,6.062873 320.543243,8.309361 334.846130,12.701679 
	C360.625916,20.618483 384.431976,32.884262 406.447174,48.637085 
	C424.381195,61.469688 440.356354,76.378212 454.448334,93.219810 
	C469.278473,110.943665 481.325226,130.549347 490.813507,151.636246 
	C500.016907,172.090042 506.601624,193.377411 510.015900,215.589340 
	C511.060516,222.385223 512.007996,229.196030 513.000000,236.000000 
M373.687927,62.800575 
	C364.050385,57.901302 354.658234,52.423698 344.729614,48.210323 
	C313.966034,35.155273 281.832245,28.977213 248.356293,31.038200 
	C237.091415,31.731737 225.721512,32.413975 214.665817,34.507385 
	C174.013611,42.204933 138.115356,59.821953 107.049072,87.321854 
	C83.002151,108.608200 64.299767,133.705429 50.963017,162.925003 
	C32.190331,204.054230 26.465393,247.008774 33.124409,291.544556 
	C40.023205,337.683990 59.917583,377.800568 91.596458,411.900238 
	C111.983032,433.844696 136.044083,450.885529 163.424591,463.288788 
	C204.950470,482.099884 248.260101,487.604523 293.089661,480.629242 
	C338.289734,473.596313 377.702545,453.974182 411.220764,423.022766 
	C433.198914,402.727722 450.425751,378.798248 462.924591,351.420410 
	C481.710480,310.271271 487.537964,267.358551 480.898590,222.832550 
	C473.834534,175.458374 453.229187,134.501343 420.245453,99.823563 
	C406.637848,85.517105 391.172302,73.448776 373.687927,62.800575 
z"/>
<path fill="none" opacity="1.000000" stroke="none" 
	d="
M513.000000,235.531342 
	C512.007996,229.196030 511.060516,222.385223 510.015900,215.589340 
	C506.601624,193.377411 500.016907,172.090042 490.813507,151.636246 
	C481.325226,130.549347 469.278473,110.943665 454.448334,93.219810 
	C440.356354,76.378212 424.381195,61.469688 406.447174,48.637085 
	C384.431976,32.884262 360.625916,20.618483 334.846130,12.701679 
	C320.543243,8.309361 305.572601,6.062873 290.863831,3.039487 
	C286.833710,2.211101 282.662384,2.069649 278.277954,1.306485 
	C356.260376,1.000000 434.520752,1.000000 513.000000,1.000000 
	C513.000000,79.020760 513.000000,157.041718 513.000000,235.531342 
z"/>
<path fill="none" opacity="1.000000" stroke="none" 
	d="
M278.468658,513.000000 
	C284.804138,512.007996 291.615143,511.060516 298.411194,510.015839 
	C320.623749,506.601471 341.911316,500.015625 362.365906,490.812469 
	C383.453705,481.324371 403.059601,469.276459 420.783661,454.446198 
	C437.625641,440.354004 452.532837,424.376404 465.366486,406.442352 
	C481.118866,384.429535 493.423859,360.647430 501.301514,334.849182 
	C505.671783,320.537018 507.936859,305.573395 510.960480,290.864227 
	C511.788940,286.834015 511.930298,282.662506 512.693481,278.277924 
	C513.000000,356.260376 513.000000,434.520752 513.000000,513.000000 
	C434.979248,513.000000 356.958282,513.000000 278.468658,513.000000 
z"/>
<path fill="none" opacity="1.000000" stroke="none" 
	d="
M235.531342,1.000000 
	C229.195938,1.991977 222.385025,2.939456 215.589050,3.984097 
	C193.376801,7.398439 172.109344,14.027629 151.629532,23.174864 
	C130.501343,32.611698 110.606010,44.368183 93.338257,59.683746 
	C79.735870,71.748329 66.897079,84.937744 55.293297,98.932739 
	C35.661381,122.610237 21.760651,149.811325 12.698044,179.152328 
	C8.283047,193.446259 6.062984,208.427063 3.039486,223.136047 
	C2.211071,227.166199 2.069656,231.337585 1.306489,235.722076 
	C1.000000,157.739624 1.000000,79.479240 1.000000,1.000000 
	C79.020760,1.000000 157.041718,1.000000 235.531342,1.000000 
z"/>
<path fill="none" opacity="1.000000" stroke="none" 
	d="
M1.000000,278.468658 
	C1.982139,284.637848 2.988058,291.272247 3.942043,297.914154 
	C7.044380,319.513519 13.458611,340.187744 22.135099,360.110352 
	C31.767698,382.228333 44.358936,402.684753 59.868793,421.158417 
	C73.988510,437.976318 90.019112,452.818848 107.952904,465.655884 
	C129.841629,481.323853 153.553635,493.397064 179.153961,501.294037 
	C193.450165,505.703979 208.426804,507.936859 223.135941,510.960510 
	C227.166107,511.788971 231.337524,511.930328 235.722061,512.693481 
	C157.739624,513.000000 79.479256,513.000000 1.000000,513.000000 
	C1.000000,434.979248 1.000000,356.958282 1.000000,278.468658 
z"/>
<path fill="#D03827" opacity="1.000000" stroke="none" 
	d="
M373.998138,62.989555 
	C391.172302,73.448776 406.637848,85.517105 420.245453,99.823563 
	C453.229187,134.501343 473.834534,175.458374 480.898590,222.832550 
	C487.537964,267.358551 481.710480,310.271271 462.924591,351.420410 
	C450.425751,378.798248 433.198914,402.727722 411.220764,423.022766 
	C377.702545,453.974182 338.289734,473.596313 293.089661,480.629242 
	C248.260101,487.604523 204.950470,482.099884 163.424591,463.288788 
	C136.044083,450.885529 111.983032,433.844696 91.596458,411.900238 
	C59.917583,377.800568 40.023205,337.683990 33.124409,291.544556 
	C26.465393,247.008774 32.190331,204.054230 50.963017,162.925003 
	C64.299767,133.705429 83.002151,108.608200 107.049072,87.321854 
	C138.115356,59.821953 174.013611,42.204933 214.665817,34.507385 
	C225.721512,32.413975 237.091415,31.731737 248.356293,31.038200 
	C281.832245,28.977213 313.966034,35.155273 344.729614,48.210323 
	C354.658234,52.423698 364.050385,57.901302 373.998138,62.989555 
M267.544189,317.258728 
	C272.761627,314.455078 275.816315,310.191864 276.317352,304.219360 
	C278.209778,281.661163 280.134003,259.105560 281.977356,236.543365 
	C284.471802,206.011856 286.844971,175.470337 289.392731,144.943344 
	C290.262024,134.527557 287.027039,128.107422 277.531921,123.583435 
	C266.220947,118.194283 254.376083,117.905075 242.462082,121.087654 
	C228.879715,124.715897 223.665298,132.247940 224.437515,146.308884 
	C224.537933,148.136902 224.404068,149.980865 224.557053,151.802475 
	C228.763626,201.889145 232.891663,251.982834 237.299942,302.051819 
	C238.247986,312.819550 243.552139,318.351288 253.777176,319.460541 
	C258.032501,319.922180 262.511444,318.322632 267.544189,317.258728 
M281.727814,360.086121 
	C276.165375,347.060730 265.099091,340.754120 251.874588,343.072876 
	C240.884857,344.999817 231.790176,355.018066 231.059998,366.240356 
	C230.317169,377.657227 234.963287,386.455719 245.049500,391.750122 
	C254.768875,396.851929 264.519897,395.919800 273.106232,389.048431 
	C282.193542,381.776184 284.880188,372.113251 281.727814,360.086121 
z"/>
<path fill="#FFFEFE" opacity="1.000000" stroke="none" 
	d="
M267.216431,317.459534 
	C262.511444,318.322632 258.032501,319.922180 253.777176,319.460541 
	C243.552139,318.351288 238.247986,312.819550 237.299942,302.051819 
	C232.891663,251.982834 228.763626,201.889145 224.557053,151.802475 
	C224.404068,149.980865 224.537933,148.136902 224.437515,146.308884 
	C223.665298,132.247940 228.879715,124.715897 242.462082,121.087654 
	C254.376083,117.905075 266.220947,118.194283 277.531921,123.583435 
	C287.027039,128.107422 290.262024,134.527557 289.392731,144.943344 
	C286.844971,175.470337 284.471802,206.011856 281.977356,236.543365 
	C280.134003,259.105560 278.209778,281.661163 276.317352,304.219360 
	C275.816315,310.191864 272.761627,314.455078 267.216431,317.459534 
z"/>
<path fill="#FFFDFD" opacity="1.000000" stroke="none" 
	d="
M281.825745,360.481018 
	C284.880188,372.113251 282.193542,381.776184 273.106232,389.048431 
	C264.519897,395.919800 254.768875,396.851929 245.049500,391.750122 
	C234.963287,386.455719 230.317169,377.657227 231.059998,366.240356 
	C231.790176,355.018066 240.884857,344.999817 251.874588,343.072876 
	C265.099091,340.754120 276.165375,347.060730 281.825745,360.481018 
z"/>
</svg>