<?xml version="1.0" encoding="utf-8"?>
<svg fill="#A0751E" height="800px" width="800px" version="1.1" id="Layer_1" xmlns="http://www.w3.org/2000/svg" xmlns:xlink="http://www.w3.org/1999/xlink" 
	 viewBox="0 0 256 196.7" xml:space="preserve">
<path d="M127.5,194.9c12,0,21.9-8.6,24-20h-48C105.6,186.3,115.5,194.9,127.5,194.9z M207.5,134.7c-8.5-8.5-19-12.6-19-53.8
	c0-30.3-22.1-55.4-51-60.2H136c1.8-2,3-4.7,3-7.7c0-6.3-5.1-11.4-11.4-11.4c-6.3,0-11.4,5.1-11.4,11.4c0,3,1.1,5.7,3,7.7h-1.6
	c-28.9,4.8-51,29.9-51,60.2c0,41.2-10.5,45.3-19,53.8C35.9,146.2,44.1,166,60.4,166h134.2C210.9,166,219.1,146.2,207.5,134.7z"/>
</svg>
