<svg xmlns="http://www.w3.org/2000/svg" width="20" height="20" viewBox="0 0 20 20" fill="none">
<path d="M16.6667 18.3333H3.33334V16.6667C3.33334 15.5616 3.77233 14.5018 4.55373 13.7204C5.33513 12.939 6.39494 12.5 7.50001 12.5H12.5C13.6051 12.5 14.6649 12.939 15.4463 13.7204C16.2277 14.5018 16.6667 15.5616 16.6667 16.6667V18.3333ZM10 10.8333C9.3434 10.8333 8.69322 10.704 8.08659 10.4527C7.47996 10.2015 6.92877 9.83317 6.46448 9.36888C6.00018 8.90458 5.63189 8.35339 5.38061 7.74676C5.12934 7.14013 5.00001 6.48995 5.00001 5.83334C5.00001 5.17673 5.12934 4.52655 5.38061 3.91993C5.63189 3.3133 6.00018 2.7621 6.46448 2.29781C6.92877 1.83352 7.47996 1.46522 8.08659 1.21395C8.69322 0.962672 9.3434 0.833343 10 0.833344C11.3261 0.833344 12.5979 1.36013 13.5355 2.29781C14.4732 3.23549 15 4.50726 15 5.83334C15 7.15943 14.4732 8.4312 13.5355 9.36888C12.5979 10.3066 11.3261 10.8333 10 10.8333Z" fill="black"/>
</svg>