<svg width="20" height="20" viewBox="0 0 20 20" fill="none" xmlns="http://www.w3.org/2000/svg">
<g clip-path="url(#clip0_2760_45450)">
<path d="M9.99999 18.3337C5.39749 18.3337 1.66666 14.6028 1.66666 10.0003C1.66666 5.39783 5.39749 1.66699 9.99999 1.66699C14.6025 1.66699 18.3333 5.39783 18.3333 10.0003C18.3333 14.6028 14.6025 18.3337 9.99999 18.3337ZM9.16666 12.5003V14.167H10.8333V12.5003H9.16666ZM10.8333 11.1295C11.503 10.9276 12.078 10.492 12.4535 9.90178C12.8289 9.3116 12.9799 8.6062 12.8789 7.91405C12.778 7.22189 12.4317 6.58903 11.9033 6.13071C11.3749 5.67239 10.6995 5.41911 9.99999 5.41699C9.3257 5.41694 8.67221 5.65045 8.15065 6.07782C7.62909 6.50519 7.27167 7.10002 7.13916 7.76116L8.77416 8.08866C8.82056 7.85652 8.93192 7.64233 9.0953 7.47101C9.25867 7.29969 9.46733 7.17828 9.69701 7.12091C9.92669 7.06355 10.1679 7.07258 10.3927 7.14697C10.6174 7.22135 10.8164 7.35802 10.9665 7.54109C11.1166 7.72415 11.2117 7.94607 11.2406 8.18103C11.2695 8.41599 11.2311 8.65433 11.1298 8.86831C11.0285 9.0823 10.8686 9.26313 10.6686 9.38977C10.4686 9.51641 10.2367 9.58364 9.99999 9.58366C9.77898 9.58366 9.56702 9.67146 9.41073 9.82774C9.25445 9.98402 9.16666 10.196 9.16666 10.417V11.667H10.8333V11.1295Z" fill="#4F6168"/>
</g>
<defs>
<clipPath id="clip0_2760_45450">
<rect width="20" height="20" fill="white"/>
</clipPath>
</defs>
</svg>
