<svg width="26" height="26" viewBox="0 0 26 26" fill="none" xmlns="http://www.w3.org/2000/svg">
<path d="M21.125 2.64062H7.3125C6.50442 2.64063 5.72943 2.96163 5.15803 3.53303C4.58663 4.10443 4.26563 4.87942 4.26562 5.6875V22.75C4.26563 22.9116 4.32983 23.0666 4.44411 23.1809C4.55839 23.2952 4.71338 23.3594 4.875 23.3594H19.5C19.6616 23.3594 19.8166 23.2952 19.9309 23.1809C20.0452 23.0666 20.1094 22.9116 20.1094 22.75C20.1094 22.5884 20.0452 22.4334 19.9309 22.3191C19.8166 22.2048 19.6616 22.1406 19.5 22.1406H5.48438V21.9375C5.48438 21.4527 5.67698 20.9877 6.01982 20.6448C6.36266 20.302 6.82765 20.1094 7.3125 20.1094H21.125C21.2866 20.1094 21.4416 20.0452 21.5559 19.9309C21.6702 19.8166 21.7344 19.6616 21.7344 19.5V3.25C21.7344 3.08838 21.6702 2.93339 21.5559 2.81911C21.4416 2.70483 21.2866 2.64062 21.125 2.64062ZM11.9844 3.85938H17.2656V11.7812L14.9896 10.075C14.8841 9.99589 14.7558 9.95312 14.624 9.95312C14.4921 9.95312 14.3638 9.99589 14.2584 10.075L11.9844 11.7812V3.85938ZM20.5156 18.8906H7.3125C6.65309 18.8897 6.01133 19.1036 5.48438 19.5V5.6875C5.48438 5.20265 5.67698 4.73766 6.01982 4.39482C6.36266 4.05198 6.82765 3.85938 7.3125 3.85938H10.7656V13C10.7656 13.1132 10.7971 13.2241 10.8566 13.3204C10.9161 13.4166 11.0013 13.4944 11.1025 13.545C11.2037 13.5957 11.317 13.6171 11.4297 13.6069C11.5424 13.5967 11.6501 13.5554 11.7406 13.4875L14.625 11.3242L17.5104 13.4875C17.6009 13.5551 17.7085 13.5962 17.821 13.6062C17.9336 13.6162 18.0467 13.5947 18.1477 13.5442C18.2488 13.4936 18.3338 13.4159 18.3932 13.3198C18.4527 13.2237 18.4842 13.113 18.4844 13V3.85938H20.5156V18.8906Z" fill="#3A5475"/>
</svg>
