<svg width="20" height="21" viewBox="0 0 20 21" fill="none" xmlns="http://www.w3.org/2000/svg">
<path d="M9.99999 9.66699C11.1051 9.66699 12.1649 10.106 12.9463 10.8874C13.7277 11.6688 14.1667 12.7286 14.1667 13.8337V18.8337H5.83332V13.8337C5.83332 12.7286 6.27231 11.6688 7.05371 10.8874C7.83511 10.106 8.89492 9.66699 9.99999 9.66699ZM4.40666 12.172C4.27404 12.6193 4.1957 13.081 4.17332 13.547L4.16666 13.8337V18.8337H1.66666V15.0837C1.66649 14.365 1.93168 13.6715 2.41135 13.1363C2.89102 12.6011 3.55141 12.2619 4.26582 12.1837L4.40749 12.172H4.40666ZM15.5933 12.172C16.3349 12.2172 17.0313 12.5436 17.5405 13.0847C18.0497 13.6258 18.3332 14.3407 18.3333 15.0837V18.8337H15.8333V13.8337C15.8333 13.2562 15.75 12.6987 15.5933 12.172ZM4.58332 7.16699C5.13586 7.16699 5.66576 7.38649 6.05646 7.77719C6.44716 8.16789 6.66666 8.69779 6.66666 9.25033C6.66666 9.80286 6.44716 10.3328 6.05646 10.7235C5.66576 11.1142 5.13586 11.3337 4.58332 11.3337C4.03079 11.3337 3.50089 11.1142 3.11018 10.7235C2.71948 10.3328 2.49999 9.80286 2.49999 9.25033C2.49999 8.69779 2.71948 8.16789 3.11018 7.77719C3.50089 7.38649 4.03079 7.16699 4.58332 7.16699ZM15.4167 7.16699C15.9692 7.16699 16.4991 7.38649 16.8898 7.77719C17.2805 8.16789 17.5 8.69779 17.5 9.25033C17.5 9.80286 17.2805 10.3328 16.8898 10.7235C16.4991 11.1142 15.9692 11.3337 15.4167 11.3337C14.8641 11.3337 14.3342 11.1142 13.9435 10.7235C13.5528 10.3328 13.3333 9.80286 13.3333 9.25033C13.3333 8.69779 13.5528 8.16789 13.9435 7.77719C14.3342 7.38649 14.8641 7.16699 15.4167 7.16699ZM9.99999 2.16699C10.884 2.16699 11.7319 2.51818 12.357 3.1433C12.9821 3.76842 13.3333 4.61627 13.3333 5.50033C13.3333 6.38438 12.9821 7.23223 12.357 7.85735C11.7319 8.48247 10.884 8.83366 9.99999 8.83366C9.11594 8.83366 8.26809 8.48247 7.64297 7.85735C7.01785 7.23223 6.66666 6.38438 6.66666 5.50033C6.66666 4.61627 7.01785 3.76842 7.64297 3.1433C8.26809 2.51818 9.11594 2.16699 9.99999 2.16699Z" fill="#0056B3"/>
</svg>
