<svg width="71" height="48" viewBox="0 0 71 48" fill="none" xmlns="http://www.w3.org/2000/svg">
<path d="M0 0H70.7368V48H0V0Z" fill="white"/>
<path d="M36.1904 17.8218V8.08203H39.2855V17.6335C39.2855 18.596 39.493 18.8799 40.0404 18.8799C40.626 18.8799 40.7763 18.6152 40.7763 17.6335V8.08203H43.8727V17.8218C43.8727 20.6724 42.4379 21.8807 40.0404 21.8807C37.5312 21.8807 36.1904 20.6724 36.1904 17.8218Z" fill="black"/>
<path d="M48.4599 21.6731H45.4209V8.08203H49.2532C52.0096 8.08203 53.1045 9.17643 53.1045 11.4804V13.8776C53.1045 16.1624 52.0101 17.5023 49.2532 17.5023H48.4599V21.6731ZM48.4599 14.8018H49.0825C49.686 14.8018 49.989 14.4618 49.989 13.8011V11.6112C49.989 10.9695 49.7063 10.6677 49.1015 10.6677H48.4599V14.8018Z" fill="black"/>
<path d="M54.4443 21.6731V8.08203H57.2185L59.616 14.7268L59.8236 15.4817L59.7675 14.2544V8.08203H62.5608V21.6731H59.8426L57.3892 15.0284L57.1627 14.2543L57.2377 15.595V21.6731H54.4443Z" fill="black"/>
<path d="M19.5656 8.08203V39.7115H14.9426V16.5371L14.8115 16.6581C12.7637 18.5851 10.5073 20.2774 8.08398 21.7037L8.08398 16.4736C9.35573 15.5845 10.5631 14.6068 11.6972 13.5477C13.4623 11.9014 15.0438 10.0688 16.4143 8.08203L19.5656 8.08203Z" fill="black"/>
<path d="M32.7619 16.4736V21.7037C30.3391 20.2767 28.0827 18.5844 26.0344 16.6581L25.9032 16.5371V39.7115H21.2803V8.08203H24.4314C25.8022 10.0685 27.3838 11.9011 29.1484 13.5477C30.2821 14.6074 31.4896 15.5852 32.7619 16.4736Z" fill="black"/>
<path d="M36.7373 27.9375V25.3555H37.3968V27.8968C37.3968 28.2495 37.4873 28.3845 37.7232 28.3845C37.9592 28.3845 38.0496 28.2533 38.0496 27.8968V25.3555H38.704V27.9375C38.704 28.6924 38.3564 29.0196 37.7223 29.0196C37.0697 29.0196 36.7373 28.6924 36.7373 27.9375Z" fill="black"/>
<path d="M39.1982 28.9715V25.3633H39.7775L40.6077 27.3966L40.7342 27.804L40.6985 27.3163V25.3633H41.2868V28.9715H40.7221L39.8718 26.9229L39.7456 26.4901L39.7863 27.0277V28.9715H39.1982Z" fill="black"/>
<path d="M41.71 28.3507H42.1324V25.9589H41.71V25.3555H43.1742V25.9589H42.7615V28.3507H43.1742V28.9651H41.71V28.3507Z" fill="black"/>
<path d="M43.4473 25.3555H44.1118L44.5396 27.5097L44.5753 28.0381L44.611 27.5097L45.0286 25.3555H45.6881L44.9024 28.9637H44.2481L43.4473 25.3555Z" fill="black"/>
<path d="M46.0186 28.9715V25.3633H47.7043V25.9516H46.6616V26.8478H47.577V27.443H46.6616V28.3635H47.7335V28.9721L46.0186 28.9715Z" fill="black"/>
<path d="M48.7716 28.9715H48.1426V25.3633H49.1141C49.7938 25.3633 50.0753 25.6256 50.0753 26.224V26.6568C50.0753 27.0095 49.9441 27.1944 49.6934 27.2904C49.9556 27.3756 50.0409 27.5615 50.0409 27.9194V28.7342C50.0389 28.7783 50.0464 28.8222 50.063 28.8631C50.0796 28.9039 50.1048 28.9407 50.1369 28.971H49.4514C49.425 28.937 49.4057 28.8981 49.3945 28.8566C49.3834 28.815 49.3807 28.7717 49.3865 28.729V27.9491C49.3865 27.692 49.3165 27.5914 49.044 27.5914H48.7727V28.9715H48.7716ZM48.7716 27.0185H49.0788C49.3359 27.0185 49.4365 26.9033 49.4365 26.6608V26.2576C49.4365 26.0209 49.3359 25.9151 49.0736 25.9151H48.7716V27.0183V27.0185Z" fill="black"/>
<path d="M50.4316 28.0828V27.599H51.1063V28.0734C51.1063 28.3051 51.1866 28.4401 51.4489 28.4401C51.6856 28.4401 51.7658 28.2936 51.7658 28.0926V27.9067C51.7682 27.8145 51.74 27.7241 51.6856 27.6496C51.5469 27.5039 51.379 27.3889 51.1929 27.3123C51.075 27.2525 50.9622 27.1832 50.8556 27.1049C50.7323 27.0239 50.6322 26.9122 50.5652 26.7807C50.4983 26.6492 50.4667 26.5026 50.4737 26.3552V26.2048C50.4737 25.6459 50.7805 25.3086 51.43 25.3086C52.0796 25.3086 52.3708 25.6256 52.3708 26.1534V26.546H51.7315V26.1935C51.7315 25.9568 51.6462 25.851 51.4243 25.851C51.2079 25.851 51.1225 25.9923 51.1225 26.2087V26.3093C51.1184 26.394 51.1471 26.477 51.2027 26.541C51.3423 26.6776 51.5062 26.7871 51.6858 26.8638C51.801 26.9237 51.9123 26.9949 52.0283 27.07C52.1531 27.1524 52.2543 27.2657 52.3222 27.399C52.39 27.5322 52.4222 27.6808 52.4154 27.8301V28.1064C52.4154 28.6807 52.089 29.0219 51.4389 29.0219C50.6889 29.0238 50.4316 28.6964 50.4316 28.0828Z" fill="black"/>
<path d="M52.7217 28.3507H53.1441V25.9589H52.7217V25.3555H54.1859V25.9589H53.7733V28.3507H54.1859V28.9651H52.7217V28.3507Z" fill="black"/>
<path d="M55.54 25.3558C55.7321 25.3518 55.9228 25.3896 56.0989 25.4665C56.4211 25.6078 56.6221 25.9147 56.6221 26.4277V27.8919C56.6331 28.1058 56.5841 28.3186 56.4808 28.5063C56.2999 28.8233 55.9576 28.9646 55.5348 28.9646H54.6094V25.3558H55.54ZM55.2587 28.3911H55.5108C55.7871 28.3911 55.9488 28.2256 55.9488 27.8322V26.4736C55.9488 26.0763 55.7833 25.9147 55.5056 25.9147H55.2587V28.3911Z" fill="black"/>
<path d="M57.5732 28.438L57.4726 28.9713H56.8232L57.6227 25.3633H58.2721L59.0919 28.9715H58.4428L58.3372 28.4382L57.5732 28.438ZM58.2275 27.8689L57.9908 26.6658L57.9501 26.1628L57.9092 26.6658L57.6826 27.8689H58.2275Z" fill="black"/>
<path d="M60.3408 25.3557C60.5329 25.3518 60.7236 25.3896 60.8997 25.4665C61.2219 25.6078 61.4229 25.9147 61.4229 26.4277V27.8919C61.4338 28.1058 61.3849 28.3186 61.2816 28.5063C61.1007 28.8233 60.7584 28.9646 60.3356 28.9646H59.4102V25.3557H60.3408ZM60.0595 28.3911H60.3116C60.5879 28.3911 60.7495 28.2256 60.7495 27.8322V26.4736C60.7495 26.0763 60.584 25.9147 60.3064 25.9147H60.0595V28.3911Z" fill="black"/>
<path d="M37.397 34.3368H36.7578V30.7285H37.7088C38.4077 30.7285 38.7108 31.001 38.7108 31.6388V32.2532C38.7108 32.8484 38.4192 33.2042 37.719 33.2042H37.397V34.337V34.3368ZM37.397 32.6358H37.6834C37.9405 32.6358 38.0603 32.4995 38.0603 32.2386V31.6605C38.0603 31.3842 37.9451 31.2836 37.6834 31.2836H37.397V32.6358Z" fill="black"/>
<path d="M39.7472 34.3368H39.1182V30.7285H40.0897C40.7694 30.7285 41.0508 30.9908 41.0508 31.5893V32.022C41.0508 32.3747 40.9197 32.5596 40.6689 32.6556C40.9312 32.7409 41.0165 32.9267 41.0165 33.2846V34.0995C41.0145 34.1435 41.022 34.1875 41.0386 34.2283C41.0552 34.2692 41.0804 34.306 41.1125 34.3362H40.427C40.4006 34.3022 40.3813 34.2633 40.3701 34.2218C40.359 34.1803 40.3563 34.1369 40.3621 34.0943V33.3144C40.3621 33.0573 40.2921 32.9567 40.0196 32.9567H39.7483V34.3368H39.7472ZM39.7472 32.3849H40.0544C40.3114 32.3849 40.4121 32.2697 40.4121 32.0272V31.624C40.4121 31.3873 40.3114 31.2815 40.0492 31.2815H39.7472V32.3849Z" fill="black"/>
<path d="M41.4033 33.7237H41.8257V31.332H41.4033V30.7285H42.8675V31.332H42.4549V33.7237H42.8675V34.3381H41.4033V33.7237Z" fill="black"/>
<path d="M43.1387 30.7285H43.8032L44.231 32.8828L44.2667 33.4111L44.3024 32.8828L44.72 30.7285H45.3795L44.5938 34.3368H43.9395L43.1387 30.7285Z" fill="black"/>
<path d="M45.9677 33.8032L45.8671 34.3366H45.2178L46.0173 30.7285H46.6666L47.4864 34.3368H46.8373L46.7317 33.8034L45.9677 33.8032ZM46.6221 33.2341L46.3853 32.031L46.3444 31.528L46.3037 32.031L46.0772 33.2341H46.6221Z" fill="black"/>
<path d="M48.7353 30.7288C48.9274 30.7248 49.1181 30.7626 49.2942 30.8396C49.6164 30.9809 49.8174 31.2877 49.8174 31.8007V33.2649C49.8284 33.4789 49.7794 33.6916 49.6761 33.8793C49.4952 34.1963 49.1529 34.3376 48.7301 34.3376H47.8047V30.7288H48.7353ZM48.454 33.7624H48.7061C48.9824 33.7624 49.1441 33.5969 49.1441 33.2035V31.8455C49.1441 31.4482 48.9786 31.2866 48.7009 31.2866H48.454V33.7624Z" fill="black"/>
<path d="M50.7695 33.8032L50.6689 34.3366H50.0195L50.819 30.7285H51.4684L52.2882 34.3368H51.6391L51.5335 33.8034L50.7695 33.8032ZM51.4238 33.2341L51.1871 32.031L51.1464 31.528L51.1055 32.031L50.8789 33.2341H51.4238Z" fill="black"/>
<path d="M37.6894 36.096C37.8815 36.092 38.0722 36.1298 38.2483 36.2068C38.5705 36.3481 38.7715 36.6549 38.7715 37.1679V38.6321C38.7825 38.8461 38.7335 39.0588 38.6302 39.2465C38.4493 39.5635 38.107 39.7048 37.6842 39.7048H36.7588V36.096H37.6894ZM37.4068 39.1313H37.6589C37.9352 39.1313 38.0968 38.9658 38.0968 38.5724V37.2138C38.0968 36.8166 37.9313 36.6549 37.6537 36.6549H37.4068V39.1313Z" fill="black"/>
<path d="M39.2393 39.704V36.0957H40.925V36.684H39.8834V37.5802H40.7989V38.1754H39.8834V39.0959H40.9555V39.7045L39.2393 39.704Z" fill="black"/>
<path d="M41.3623 36.0957H42.0268V39.0546H42.9932V39.704H41.3623V36.0957Z" fill="black"/>
<path d="M44.4834 39.704V36.0957H45.0627L45.8929 38.129L46.0194 38.5364L45.9837 38.0487V36.0957H46.572V39.704H46.0073L45.1569 37.6553L45.0308 37.2226L45.0715 37.7602V39.704H44.4834Z" fill="black"/>
<path d="M47.04 38.6594V37.1443C47.04 36.4046 47.4475 36.0469 48.0814 36.0469C48.7154 36.0469 49.1229 36.4046 49.1229 37.1443V38.6594C49.1229 39.4144 48.7154 39.7569 48.0814 39.7569C47.4321 39.7569 47.04 39.4195 47.04 38.6594ZM48.4495 38.6097V37.1762C48.4495 36.7993 48.3439 36.6275 48.0816 36.6275C47.8105 36.6275 47.7149 36.8032 47.7149 37.1762V38.6099C47.7149 38.9829 47.8109 39.1534 48.0816 39.1534C48.3437 39.1534 48.4495 38.9816 48.4495 38.6097Z" fill="black"/>
<path d="M50.2198 39.704H49.5908V36.0957H50.5623C51.242 36.0957 51.5235 36.358 51.5235 36.9564V37.3892C51.5235 37.7419 51.3924 37.9268 51.1416 38.0228C51.4039 38.1081 51.4891 38.2939 51.4891 38.6518V39.4666C51.4871 39.5107 51.4947 39.5547 51.5112 39.5955C51.5278 39.6364 51.553 39.6732 51.5851 39.7034H50.8997C50.8733 39.6694 50.8539 39.6305 50.8428 39.589C50.8316 39.5474 50.8289 39.5041 50.8348 39.4615V38.6816C50.8348 38.4245 50.7647 38.3239 50.4923 38.3239H50.221V39.704H50.2198ZM50.2198 37.7523H50.527C50.7841 37.7523 50.8847 37.6371 50.8847 37.3946V36.9914C50.8847 36.7546 50.7841 36.6489 50.5218 36.6489H50.2198V37.7521V37.7523Z" fill="black"/>
<path d="M53.0375 39.7053H52.3882V36.6909H51.7949V36.0957H53.6381V36.6909H53.0389V39.7053H53.0375Z" fill="black"/>
<path d="M54.0156 39.704V36.0957H55.7014V36.684H54.6598V37.5802H55.5752V38.1754H54.6598V39.0959H55.7319V39.7045L54.0156 39.704Z" fill="black"/>
</svg>
