<svg width="12" height="12" viewBox="0 0 12 12" fill="none" xmlns="http://www.w3.org/2000/svg">
<g clip-path="url(#clip0_7848_98582)">
<path d="M6.50001 9V10H8.50001V11H3.50001V10H5.50001V9H1.49601C1.43035 8.99961 1.36541 8.98626 1.30492 8.96073C1.24443 8.93519 1.18958 8.89797 1.1435 8.8512C1.09742 8.80442 1.06103 8.74901 1.03641 8.68815C1.01178 8.62728 0.999412 8.56216 1.00001 8.4965V2.0035C1.00001 1.7255 1.22751 1.5 1.49601 1.5H10.504C10.778 1.5 11 1.7245 11 2.0035V8.4965C11 8.7745 10.7725 9 10.504 9H6.50001Z" fill="#4F6168"/>
</g>
<defs>
<clipPath id="clip0_7848_98582">
<rect width="12" height="12" fill="white"/>
</clipPath>
</defs>
</svg>
