<svg width="16" height="16" viewBox="0 0 16 16" fill="none" xmlns="http://www.w3.org/2000/svg">
<path d="M8.49364 2.951L13.9236 12.3563C13.9737 12.443 14 12.5413 14 12.6413C14 12.7414 13.9737 12.8397 13.9236 12.9263C13.8736 13.013 13.8017 13.0849 13.715 13.135C13.6283 13.185 13.5301 13.2113 13.43 13.2113H2.57C2.46995 13.2113 2.37165 13.185 2.285 13.135C2.19835 13.0849 2.12639 13.013 2.07636 12.9263C2.02634 12.8397 2 12.7414 2 12.6413C2 12.5413 2.02634 12.443 2.07637 12.3563L7.50636 2.951C7.5564 2.86435 7.62835 2.7924 7.715 2.74238C7.80165 2.69235 7.89995 2.66602 8 2.66602C8.10005 2.66602 8.19835 2.69235 8.285 2.74238C8.37165 2.7924 8.4436 2.86435 8.49364 2.951ZM7.42998 10.3612V11.5013H8.57002V10.3612H7.42998ZM7.42998 6.37111V9.2212H8.57002V6.37111H7.42998Z" fill="#DC3545"/>
</svg>
