<svg width="16" height="16" viewBox="0 0 16 16" fill="none" xmlns="http://www.w3.org/2000/svg">
<g clip-path="url(#clip0_7740_213319)">
<path d="M12.2427 11.5746L8 15.8173L3.75734 11.5746C2.91823 10.7355 2.34679 9.66643 2.11529 8.50255C1.88378 7.33866 2.0026 6.13227 2.45673 5.03591C2.91086 3.93956 3.6799 3.00249 4.66659 2.34321C5.65328 1.68392 6.81332 1.33203 8 1.33203C9.18669 1.33203 10.3467 1.68392 11.3334 2.34321C12.3201 3.00249 13.0891 3.93956 13.5433 5.03591C13.9974 6.13227 14.1162 7.33866 13.8847 8.50255C13.6532 9.66643 13.0818 10.7355 12.2427 11.5746ZM8 8.66531C8.35362 8.66531 8.69276 8.52484 8.94281 8.27479C9.19286 8.02474 9.33334 7.6856 9.33334 7.33198C9.33334 6.97836 9.19286 6.63922 8.94281 6.38917C8.69276 6.13912 8.35362 5.99865 8 5.99865C7.64638 5.99865 7.30724 6.13912 7.05719 6.38917C6.80715 6.63922 6.66667 6.97836 6.66667 7.33198C6.66667 7.6856 6.80715 8.02474 7.05719 8.27479C7.30724 8.52484 7.64638 8.66531 8 8.66531Z" fill="#00B9FF"/>
</g>
<defs>
<clipPath id="clip0_7740_213319">
<rect width="16" height="16" fill="white"/>
</clipPath>
</defs>
</svg>
