<svg width="14" height="14" viewBox="0 0 14 14" fill="none" xmlns="http://www.w3.org/2000/svg">
<path d="M10.3333 2.0013H13C13.1768 2.0013 13.3464 2.07154 13.4714 2.19656C13.5964 2.32159 13.6667 2.49116 13.6667 2.66797V13.3346C13.6667 13.5114 13.5964 13.681 13.4714 13.806C13.3464 13.9311 13.1768 14.0013 13 14.0013H1C0.823192 14.0013 0.653622 13.9311 0.528598 13.806C0.403574 13.681 0.333336 13.5114 0.333336 13.3346V2.66797C0.333336 2.49116 0.403574 2.32159 0.528598 2.19656C0.653622 2.07154 0.823192 2.0013 1 2.0013H3.66667V0.667969H5V2.0013H9V0.667969H10.3333V2.0013ZM1.66667 6.0013V12.668H12.3333V6.0013H1.66667ZM3 7.33463H4.33334V8.66797H3V7.33463ZM6.33334 7.33463H7.66667V8.66797H6.33334V7.33463ZM9.66667 7.33463H11V8.66797H9.66667V7.33463Z" fill="#FDBA30"/>
</svg>
