<svg width="16" height="16" viewBox="0 0 16 16" fill="none" xmlns="http://www.w3.org/2000/svg">
<g clip-path="url(#clip0_7740_213332)">
<path d="M8.00016 7.33203C8.88422 7.33203 9.73206 7.68322 10.3572 8.30834C10.9823 8.93346 11.3335 9.78131 11.3335 10.6654V14.6654H4.66683V10.6654C4.66683 9.78131 5.01802 8.93346 5.64314 8.30834C6.26826 7.68322 7.11611 7.33203 8.00016 7.33203ZM3.5255 9.33603C3.4194 9.69389 3.35673 10.0632 3.33883 10.436L3.3335 10.6654V14.6654H1.3335V11.6654C1.33336 11.0904 1.54551 10.5357 1.92925 10.1075C2.31299 9.67935 2.8413 9.40795 3.41283 9.34537L3.52616 9.33603H3.5255ZM12.4748 9.33603C13.0681 9.37219 13.6252 9.63334 14.0326 10.0662C14.4399 10.499 14.6667 11.071 14.6668 11.6654V14.6654H12.6668V10.6654C12.6668 10.2034 12.6002 9.75736 12.4748 9.33603ZM3.66683 5.33203C4.10886 5.33203 4.53278 5.50763 4.84534 5.82019C5.1579 6.13275 5.3335 6.55667 5.3335 6.9987C5.3335 7.44073 5.1579 7.86465 4.84534 8.17721C4.53278 8.48977 4.10886 8.66536 3.66683 8.66536C3.2248 8.66536 2.80088 8.48977 2.48832 8.17721C2.17576 7.86465 2.00016 7.44073 2.00016 6.9987C2.00016 6.55667 2.17576 6.13275 2.48832 5.82019C2.80088 5.50763 3.2248 5.33203 3.66683 5.33203ZM12.3335 5.33203C12.7755 5.33203 13.1994 5.50763 13.512 5.82019C13.8246 6.13275 14.0002 6.55667 14.0002 6.9987C14.0002 7.44073 13.8246 7.86465 13.512 8.17721C13.1994 8.48977 12.7755 8.66536 12.3335 8.66536C11.8915 8.66536 11.4675 8.48977 11.155 8.17721C10.8424 7.86465 10.6668 7.44073 10.6668 6.9987C10.6668 6.55667 10.8424 6.13275 11.155 5.82019C11.4675 5.50763 11.8915 5.33203 12.3335 5.33203ZM8.00016 1.33203C8.70741 1.33203 9.38568 1.61298 9.88578 2.11308C10.3859 2.61318 10.6668 3.29145 10.6668 3.9987C10.6668 4.70594 10.3859 5.38422 9.88578 5.88432C9.38568 6.38441 8.70741 6.66536 8.00016 6.66536C7.29292 6.66536 6.61464 6.38441 6.11454 5.88432C5.61445 5.38422 5.3335 4.70594 5.3335 3.9987C5.3335 3.29145 5.61445 2.61318 6.11454 2.11308C6.61464 1.61298 7.29292 1.33203 8.00016 1.33203Z" fill="#20B2AA"/>
</g>
<defs>
<clipPath id="clip0_7740_213332">
<rect width="16" height="16" fill="white"/>
</clipPath>
</defs>
</svg>
