<svg width="24" height="24" viewBox="0 0 24 24" fill="none" xmlns="http://www.w3.org/2000/svg">
<circle cx="12" cy="12" r="12" fill="#0E76A8"/>
<path fill-rule="evenodd" clip-rule="evenodd" d="M8.75601 10.1008H6.19236V18H8.75601V10.1008ZM7.45757 9.02203H7.47454C7.86262 9.01971 8.23398 8.8589 8.50721 8.57484C8.78043 8.29077 8.93322 7.90664 8.9321 7.50665C8.93098 7.10666 8.77602 6.72345 8.50121 6.44102C8.22639 6.1586 7.85415 6 7.46606 6C7.07797 6 6.70572 6.1586 6.4309 6.44102C6.15608 6.72345 6.00113 7.10666 6.00001 7.50665C5.99888 7.90664 6.15169 8.29077 6.42491 8.57484C6.69814 8.8589 7.06949 9.01971 7.45757 9.02203ZM15.4364 18H18V13.4713C18 11.0455 16.7355 9.9164 15.0488 9.9164C14.585 9.89589 14.1246 10.0065 13.7174 10.2362C13.3101 10.4659 12.9716 10.806 12.7383 11.2197V10.1008H10.1747C10.2086 10.8421 10.1747 18 10.1747 18H12.7383V13.5872C12.7283 13.3701 12.7568 13.153 12.8225 12.9465C12.9192 12.6663 13.0975 12.4238 13.3329 12.2518C13.5683 12.0799 13.8494 11.987 14.1379 11.9858C15.0651 11.9858 15.4364 12.7103 15.4364 13.7723V18Z" fill="white"/>
</svg>
